<svg width="10" height="10" viewBox="0 0 10 10" fill="none" xmlns="http://www.w3.org/2000/svg">
<path fill-rule="evenodd" clip-rule="evenodd" d="M2.665 0H7.33C9.03 0 10 0.96 10 2.665V7.335C10 9.03 9.035 10 7.335 10H2.665C0.96 10 0 9.03 0 7.335V2.665C0 0.96 0.96 0 2.665 0ZM5.41 5.415H6.83C7.06 5.41 7.245 5.225 7.245 4.995C7.245 4.765 7.06 4.58 6.83 4.58H5.41V3.17C5.41 2.94 5.225 2.755 4.995 2.755C4.765 2.755 4.58 2.94 4.58 3.17V4.58H3.165C3.055 4.58 2.95 4.625 2.87 4.7C2.795 4.78 2.75 4.8845 2.75 4.995C2.75 5.225 2.935 5.41 3.165 5.415H4.58V6.83C4.58 7.06 4.765 7.245 4.995 7.245C5.225 7.245 5.41 7.06 5.41 6.83V5.415Z" fill="#F7AE00"/>
</svg>
