<svg width="189" height="180" viewBox="0 0 189 180" fill="none" xmlns="http://www.w3.org/2000/svg">
<path fill-rule="evenodd" clip-rule="evenodd" d="M31.5 10C31.5 15.5228 27.0228 20 21.5 20C15.9772 20 11.5 15.5228 11.5 10C11.5 4.47715 15.9772 0 21.5 0C27.0228 0 31.5 4.47715 31.5 10ZM188.5 26C188.5 30.4183 184.918 34 180.5 34C176.082 34 172.5 30.4183 172.5 26C172.5 21.5817 176.082 18 180.5 18C184.918 18 188.5 21.5817 188.5 26ZM109 8C110.933 8 112.5 6.433 112.5 4.5C112.5 2.567 110.933 1 109 1C107.067 1 105.5 2.567 105.5 4.5C105.5 6.433 107.067 8 109 8ZM17.5 131.5C17.5 134.538 15.0376 137 12 137C8.96243 137 6.5 134.538 6.5 131.5C6.5 128.462 8.96243 126 12 126C15.0376 126 17.5 128.462 17.5 131.5ZM64.5 180C66.7091 180 68.5 178.209 68.5 176C68.5 173.791 66.7091 172 64.5 172C62.2909 172 60.5 173.791 60.5 176C60.5 178.209 62.2909 180 64.5 180ZM170.5 160C170.5 161.657 169.157 163 167.5 163C165.843 163 164.5 161.657 164.5 160C164.5 158.343 165.843 157 167.5 157C169.157 157 170.5 158.343 170.5 160ZM173.5 113C175.157 113 176.5 111.657 176.5 110C176.5 108.343 175.157 107 173.5 107C171.843 107 170.5 108.343 170.5 110C170.5 111.657 171.843 113 173.5 113ZM125.5 170.5C125.5 171.328 124.828 172 124 172C123.172 172 122.5 171.328 122.5 170.5C122.5 169.672 123.172 169 124 169C124.828 169 125.5 169.672 125.5 170.5ZM2 76C2.82843 76 3.5 75.3284 3.5 74.5C3.5 73.6716 2.82843 73 2 73C1.17157 73 0.5 73.6716 0.5 74.5C0.5 75.3284 1.17157 76 2 76Z" fill="url(#paint0_linear_301_12970)"/>
<rect x="30.5" y="24" width="128" height="128" rx="64" fill="url(#paint1_linear_301_12970)"/>
<rect x="69.3567" y="62.8571" width="50.2857" height="50.2857" rx="16" fill="white" stroke="white" stroke-width="2.5" stroke-linecap="round" stroke-linejoin="round"/>
<path d="M85.9282 88L91.6449 93.7143L103.073 82.2857" stroke="#F7AE00" stroke-width="4" stroke-linecap="round" stroke-linejoin="round"/>
<defs>
<linearGradient id="paint0_linear_301_12970" x1="188.5" y1="180" x2="66.0106" y2="-36.9817" gradientUnits="userSpaceOnUse">
<stop offset="0.121807" stop-color="#EFA607"/>
<stop offset="1" stop-color="#FCD93A"/>
</linearGradient>
<linearGradient id="paint1_linear_301_12970" x1="158.5" y1="152" x2="69.4799" y2="1.01728" gradientUnits="userSpaceOnUse">
<stop offset="0.121807" stop-color="#EFA607"/>
<stop offset="1" stop-color="#FCD93A"/>
</linearGradient>
</defs>
</svg>
