<svg width="280" height="270" viewBox="0 0 280 270" fill="none" xmlns="http://www.w3.org/2000/svg">
<path d="M242.02 212.514H61.399C61.1974 212.514 61.0328 212.357 61.0328 212.162C61.0328 211.967 61.1963 211.81 61.399 211.81H242.02C242.222 211.81 242.387 211.967 242.387 212.162C242.387 212.357 242.222 212.514 242.02 212.514Z" fill="#6C6D76"/>
<path d="M234.209 212.512H68.7103V67.8297H234.209V212.512ZM69.4428 211.808H233.477V68.5337H69.4428V211.808Z" fill="#6C6D76"/>
<path d="M139.353 161.462C139.353 161.462 149.015 184.633 130.919 205.052C123.116 213.857 86.8465 198.929 86.8465 198.929C85.739 198.676 86.7147 189.758 89.4521 188.391C103.656 184.339 119.796 189.81 119.796 189.81C115.889 171.083 127.523 147.756 150.661 146.588" fill="#6C6D76"/>
<path d="M149.381 146.814C149.381 146.814 178.287 140.599 191.979 162.35C205.672 184.1 187.415 211.882 187.415 211.882H124.964C124.964 211.882 121.428 157.581 149.381 146.814Z" fill="#6C6D76"/>
<path d="M124.965 212.105C124.842 212.105 124.74 212.014 124.732 211.895C124.728 211.837 124.358 205.98 124.823 197.867C124.829 197.744 124.939 197.645 125.068 197.656C125.197 197.662 125.296 197.768 125.288 197.892C124.826 205.979 125.194 211.809 125.198 211.867C125.206 211.99 125.108 212.097 124.979 212.105C124.974 212.105 124.969 212.105 124.965 212.105Z" fill="#9E9E9E"/>
<path d="M150.095 199.526C150.095 199.526 129.113 201.531 133.683 211.608C137.481 219.982 142.859 213.363 145.546 210.065C146.189 209.276 147.158 209.603 148.529 212.866C149.901 216.128 151.478 214.575 151.203 210.921C151.107 209.638 149.907 209.49 150.84 207.176C151.665 205.131 150.095 199.526 150.095 199.526Z" fill="#FFC7C1"/>
<path d="M177.435 167.503C177.435 167.503 171.056 176.29 179.362 193.642C179.362 193.642 160.799 191.553 149.499 199.003C147.615 201.027 148.187 209.224 149.499 209.835C149.499 209.835 188.376 216.3 193.85 206C206.544 182.112 191.57 161.716 191.57 161.716" fill="#6C6D76"/>
<path d="M147.919 130.184C148.418 127.729 147.246 125.443 145.3 125.078C143.355 124.712 141.373 126.406 140.874 128.861C140.374 131.316 141.547 133.602 143.492 133.968C145.437 134.333 147.419 132.639 147.919 130.184Z" fill="#514715"/>
<path d="M148.192 124.083C148.192 124.083 150.844 104.419 158.551 108.729C160.107 109.505 164.155 111.485 165.837 112.775C165.837 112.775 155.613 108.588 148.638 125.571L148.192 124.083Z" fill="#6C6D76"/>
<path d="M166.935 146.321C166.901 154.119 152.418 153.977 152.463 146.179C152.464 146.132 152.566 142.564 152.565 142.61H152.593C156.058 142.588 159.687 141.2 162.688 139.051C163.923 138.169 165.055 137.157 166.018 136.052L166.935 146.321Z" fill="#FFC7C1"/>
<path d="M162.689 139.051C160.033 141.881 156.302 144.068 152.514 144.841L152.565 142.61H152.594C156.059 142.588 159.688 141.201 162.689 139.051Z" fill="#F6AE00"/>
<path d="M143.313 121.095C143.478 131.359 142.379 139.387 148.197 141.788C155.24 144.694 164.842 139.471 168.222 132.86C171.602 126.249 167.317 121.096 160.439 117.847C153.56 114.598 143.194 113.73 143.313 121.095Z" fill="#FFC7C1"/>
<path d="M143.368 120.346C143.368 120.346 147.841 128.55 161.558 125.256C170.128 123.197 158.078 130.782 164.406 134.664C168.552 137.207 172.579 128.711 173.029 125.469C173.863 119.47 141.001 100.95 141.546 117.846C141.623 120.235 141.5 122.715 143.311 125.57L143.368 120.346Z" fill="#F7AE00"/>
<path d="M167.739 127.358C167.739 129.352 166.06 130.97 163.986 130.97C161.912 130.97 160.228 129.352 160.228 127.358C160.228 125.369 161.912 123.751 163.986 123.751C166.06 123.751 167.739 125.369 167.739 127.358Z" fill="#F7AE00"/>
<path d="M167.122 134.68C166.001 136.174 163.94 136.587 162.522 135.604C161.1 134.618 160.859 132.608 161.98 131.114C163.104 129.617 165.165 129.204 166.587 130.19C168.005 131.173 168.246 133.183 167.122 134.68Z" fill="#FFC7C1"/>
<path d="M167.364 134.604C168.654 132.431 168.303 129.905 166.581 128.961C164.859 128.017 162.418 129.013 161.129 131.186C159.839 133.359 160.19 135.886 161.912 136.83C163.634 137.773 166.075 136.777 167.364 134.604Z" fill="#514716"/>
<path d="M165.622 131.13C165.622 131.13 172.776 116.63 164.334 111.642C162.585 110.344 160.641 109.873 158.475 108.671C158.475 108.671 169.013 116.43 164.348 131.32L165.622 131.13Z" fill="#6C6D76"/>
<path d="M166.745 134.054C167.569 132.665 167.345 131.049 166.244 130.445C165.143 129.842 163.582 130.479 162.757 131.869C161.933 133.258 162.157 134.874 163.258 135.478C164.359 136.081 165.92 135.444 166.745 134.054Z" fill="white"/>
<path d="M89.4513 188.39C89.4513 188.39 70.0082 191.413 74.5785 201.491C78.3765 209.865 83.7541 203.246 86.4415 199.947C87.0842 199.158 88.053 199.486 89.4244 202.748C90.7959 206.011 92.3731 204.458 92.0988 200.804C92.0025 199.521 90.8028 199.372 91.7358 197.059C92.5607 195.014 89.4513 188.39 89.4513 188.39Z" fill="#FFC7C1"/>
<path d="M177.31 130.83C177.214 130.748 177.204 130.606 177.289 130.513L185.267 121.771C185.352 121.677 185.499 121.668 185.596 121.75C185.693 121.832 185.703 121.973 185.618 122.066L177.64 130.809C177.556 130.901 177.409 130.912 177.31 130.83ZM192.143 136.107C169.904 134.978 180.919 135.537 177.735 135.376C177.606 135.369 177.507 135.264 177.514 135.14C177.521 135.016 177.639 134.92 177.759 134.928L192.156 135.659C192.284 135.665 192.383 135.771 192.376 135.895C192.37 136.014 192.267 136.107 192.143 136.107ZM184.881 147.533L176.688 138.536C176.603 138.443 176.613 138.301 176.71 138.22C176.806 138.138 176.954 138.147 177.039 138.241L185.232 147.237C185.317 147.33 185.307 147.472 185.21 147.554C185.114 147.635 184.966 147.626 184.881 147.533Z" fill="#6C6D76"/>
<path d="M185.929 109.023C185.126 110.04 185.339 111.492 186.397 112.263C187.456 113.035 188.961 112.836 189.764 111.819C190.567 110.802 190.36 109.355 189.302 108.583C188.244 107.812 186.732 108.006 185.929 109.023Z" fill="#F6AE00"/>
<path d="M221.216 141.801C220.149 143.154 220.432 145.084 221.839 146.11C223.246 147.136 225.248 146.871 226.315 145.519C227.383 144.167 227.108 142.242 225.701 141.217C224.294 140.191 222.283 140.449 221.216 141.801Z" fill="#F6AE00"/>
<path d="M211.107 130.841L203.234 129.994C202.978 129.967 202.794 129.745 202.822 129.499C202.852 129.253 203.08 129.073 203.338 129.103L210.807 129.906L212.609 123.065C212.665 122.851 212.877 122.71 213.104 122.729L220.913 123.416L221.986 115.911C222.003 115.793 222.067 115.686 222.166 115.614C222.265 115.542 222.392 115.51 222.512 115.527L230.929 116.647C231.184 116.681 231.362 116.907 231.327 117.153C231.291 117.398 231.058 117.57 230.801 117.536L222.847 116.478L221.776 123.963C221.742 124.2 221.511 124.369 221.272 124.348L213.416 123.657L211.612 130.506C211.554 130.727 211.334 130.866 211.107 130.841Z" fill="#514716"/>
<path d="M198.58 145.678L201 151.551C201.031 151.632 201.102 151.687 201.19 151.7L201.21 151.703C201.304 151.708 201.392 151.664 201.44 151.585L205.857 144.433C205.906 144.354 205.903 144.253 205.845 144.176C205.788 144.1 205.694 144.062 205.596 144.08L198.765 145.355C198.692 145.368 198.63 145.411 198.595 145.473C198.559 145.535 198.551 145.611 198.58 145.678Z" fill="#F6AE00"/>
<path d="M188.753 127.092C188.623 126.878 188.699 126.604 188.922 126.479C189.137 126.359 189.16 126.183 189.126 125.641C189.093 125.113 189.048 124.39 189.793 123.974C190.49 123.584 191.193 123.866 191.757 124.092C192.279 124.301 192.612 124.42 192.894 124.263C193.108 124.143 193.13 123.968 193.096 123.426C193.063 122.898 193.017 122.174 193.762 121.759C194.457 121.371 195.159 121.652 195.724 121.879C196.244 122.087 196.578 122.207 196.859 122.05C197.072 121.931 197.095 121.755 197.061 121.214C197.027 120.686 196.981 119.962 197.726 119.547C197.949 119.423 198.234 119.496 198.364 119.71C198.493 119.924 198.417 120.198 198.194 120.323C197.98 120.442 197.958 120.618 197.992 121.159C198.026 121.687 198.072 122.41 197.327 122.826C196.633 123.214 195.93 122.933 195.364 122.706C194.844 122.497 194.51 122.378 194.23 122.535C194.016 122.654 193.993 122.83 194.028 123.372C194.061 123.9 194.107 124.623 193.362 125.039C192.147 125.716 190.948 124.366 190.262 124.749C190.047 124.869 190.024 125.045 190.058 125.587C190.091 126.116 190.136 126.839 189.391 127.255C189.166 127.38 188.881 127.305 188.753 127.092Z" fill="#6C6D76"/>
<path d="M101.874 163.222C100.766 161.446 101.37 159.134 103.218 158.069C105.071 157.002 107.468 157.578 108.579 159.36C109.685 161.133 109.097 163.442 107.237 164.513C105.384 165.58 102.98 164.996 101.874 163.222ZM103.938 159.223C102.751 159.907 102.364 161.39 103.075 162.53C103.787 163.671 105.331 164.043 106.517 163.359C107.706 162.675 108.091 161.194 107.378 160.051C106.666 158.909 105.127 158.538 103.938 159.223Z" fill="#F7AE00"/>
<path d="M102.257 159.844C101.974 159.591 101.957 159.165 102.22 158.893L108.729 152.154L106.375 152.488C105.993 152.541 105.637 152.289 105.581 151.921C105.524 151.554 105.788 151.211 106.17 151.157L110.495 150.542C110.794 150.502 111.079 150.642 111.217 150.895C111.356 151.147 111.313 151.456 111.111 151.666L103.246 159.808C102.983 160.081 102.541 160.097 102.257 159.844Z" fill="#F7AE00"/>
<path d="M99.1313 173.285C99.0074 173.251 98.9363 173.127 98.9718 173.008C99.0019 172.908 101.783 162.876 86.1973 149.359C70.3256 135.595 80.101 122.267 80.2017 122.134C80.2778 122.033 80.4236 122.012 80.5276 122.084C80.6315 122.157 80.6547 122.297 80.5791 122.398C80.4811 122.528 70.9577 135.539 86.5099 149.026C102.335 162.75 99.4513 173.031 99.4203 173.133C99.3844 173.25 99.2574 173.32 99.1313 173.285Z" fill="#6C6D76"/>
<path d="M98.2748 155.674C96.3617 153.238 93.9869 150.784 91.216 148.381C76.8724 135.942 83.434 123.919 84.8951 121.635C84.9634 121.529 85.1079 121.497 85.2159 121.561C85.3257 121.626 85.3599 121.764 85.2925 121.869C83.8656 124.1 77.4594 135.847 91.5287 148.048C94.3214 150.471 96.7167 152.945 98.6476 155.403C98.7251 155.502 98.7046 155.643 98.6016 155.718C98.5001 155.792 98.3532 155.773 98.2748 155.674Z" fill="#6C6D76"/>
<path d="M93.3607 174.437C93.2367 174.403 93.1656 174.278 93.2012 174.159C93.2313 174.06 96.0126 164.027 80.4271 150.511C74.463 145.339 71.3996 139.672 71.3216 133.669C71.3203 133.545 71.4233 133.443 71.5522 133.442C71.6967 133.442 71.7865 133.539 71.7883 133.663C71.8644 139.537 74.8763 145.093 80.7397 150.178C96.5645 163.902 93.6806 174.182 93.6496 174.284C93.6138 174.401 93.4873 174.472 93.3607 174.437Z" fill="#6C6D76"/>
<path d="M88.9365 174.437C88.8125 174.403 88.7414 174.278 88.777 174.159C88.7984 174.089 90.7977 166.969 82.1607 156.694C82.0796 156.598 82.0951 156.457 82.1953 156.379C82.2961 156.301 82.4424 156.316 82.5235 156.412C91.3286 166.888 89.3152 173.987 89.2254 174.284C89.1895 174.401 89.0626 174.472 88.9365 174.437Z" fill="#6C6D76"/>
<path d="M66.2509 126.819C64.7128 125.369 64.6887 122.986 66.1971 121.508C67.6772 120.057 70.1469 119.967 71.7247 121.455C73.2637 122.906 73.2874 125.29 71.7784 126.769C70.2759 128.241 67.7956 128.276 66.2509 126.819ZM67.2307 125.859C68.2192 126.79 69.8111 126.775 70.7786 125.826C71.7475 124.877 71.732 123.347 70.7439 122.416C69.7577 121.486 68.1694 121.497 67.197 122.45C66.2286 123.399 66.2436 124.928 67.2307 125.859Z" fill="#7655FF"/>
<path d="M67.3317 127.54L58.9039 123.188L59.8349 125.293C59.9858 125.635 59.8204 126.03 59.4644 126.175C59.1076 126.321 58.6974 126.161 58.5461 125.819L56.8358 121.952C56.5777 121.369 57.2302 120.796 57.8115 121.096L67.9943 126.355C68.3347 126.531 68.4628 126.939 68.2796 127.266C68.097 127.593 67.6722 127.717 67.3317 127.54Z" fill="#7655FF"/>
<path d="M67.6785 175.309C67.118 176.019 67.2667 177.033 68.0055 177.571C68.7443 178.11 69.7956 177.971 70.356 177.261C70.9164 176.551 70.772 175.541 70.0333 175.002C69.2945 174.463 68.2388 174.599 67.6785 175.309Z" fill="#FFB448"/>
<path d="M233.843 69.2996H69.0764V64.0325C69.0764 58.589 73.6684 54.1755 79.3322 54.1755H223.587C229.251 54.1755 233.843 58.589 233.843 64.0325V69.2996Z" fill="#6C6D76"/>
<path d="M234.209 69.6503H68.7103V64.0313C68.7103 58.4025 73.4748 53.8223 79.3324 53.8223H223.587C229.444 53.8223 234.208 58.4015 234.208 64.0313V69.6503H234.209ZM69.4428 68.9463H233.477V64.0313C233.477 58.7901 229.04 54.5263 223.587 54.5263H79.3324C73.8791 54.5263 69.4428 58.7901 69.4428 64.0313V68.9463Z" fill="#6C6D76"/>
<path d="M76.5203 63.7744C77.69 63.7744 78.6382 62.863 78.6382 61.7388C78.6382 60.6146 77.69 59.7032 76.5203 59.7032C75.3506 59.7032 74.4023 60.6146 74.4023 61.7388C74.4023 62.863 75.3506 63.7744 76.5203 63.7744Z" fill="white"/>
<path d="M82.3566 63.7744C83.5263 63.7744 84.4745 62.863 84.4745 61.7388C84.4745 60.6146 83.5263 59.7032 82.3566 59.7032C81.1869 59.7032 80.2387 60.6146 80.2387 61.7388C80.2387 62.863 81.1869 63.7744 82.3566 63.7744Z" fill="white"/>
<path d="M88.1915 63.7744C89.3612 63.7744 90.3094 62.863 90.3094 61.7388C90.3094 60.6146 89.3612 59.7032 88.1915 59.7032C87.0218 59.7032 86.0736 60.6146 86.0736 61.7388C86.0736 62.863 87.0218 63.7744 88.1915 63.7744Z" fill="white"/>
<path d="M102.791 87.4666H79.6951C79.3636 87.4666 79.0948 87.2083 79.0948 86.8896V78.8195C79.0948 78.5009 79.3636 78.2426 79.6951 78.2426H102.791C103.122 78.2426 103.391 78.5009 103.391 78.8195V86.8896C103.391 87.2083 103.122 87.4666 102.791 87.4666ZM193.783 82.8551C193.783 83.3481 193.573 83.7981 193.236 84.1264C192.899 84.4504 192.431 84.6517 191.914 84.6517H185.134C184.099 84.6517 183.265 83.8444 183.265 82.8551C183.265 82.3578 183.474 81.9068 183.811 81.5838C184.149 81.2598 184.617 81.0585 185.134 81.0585H191.914C192.947 81.0585 193.783 81.8605 193.783 82.8551Z" fill="#514716"/>
<path d="M208.073 82.8555C208.073 83.3486 207.864 83.7985 207.527 84.1268C207.19 84.4508 206.722 84.6521 206.204 84.6521H199.425C198.39 84.6521 197.556 83.8448 197.556 82.8555C197.556 82.3582 197.765 81.9072 198.102 81.5843C198.439 81.2603 198.907 81.059 199.425 81.059H206.204C207.239 81.059 208.073 81.8609 208.073 82.8555Z" fill="#F6AE00"/>
<path d="M222.367 82.8555C222.367 83.3486 222.157 83.7985 221.82 84.1268C221.483 84.4508 221.015 84.6521 220.497 84.6521H213.718C212.683 84.6521 211.849 83.8448 211.849 82.8555C211.849 82.3582 212.058 81.9072 212.395 81.5843C212.732 81.2603 213.201 81.059 213.718 81.059H220.497C221.531 81.059 222.367 81.8609 222.367 82.8555Z" fill="#514716"/>
<path d="M127.492 107.936V127.712C127.492 132.751 123.241 136.833 117.998 136.833H89.225L82.2497 143.435C80.4969 145.092 77.6857 145.092 75.9329 143.435L68.9665 136.833H40.1892C34.9465 136.833 30.6994 132.751 30.6994 127.712V107.936C30.6994 102.897 34.9465 98.8099 40.1892 98.8099H117.998C123.241 98.8099 127.492 102.897 127.492 107.936Z" fill="#F7AE00"/>
<path d="M79.0914 144.954C77.8549 144.954 76.6184 144.51 75.6765 143.62L68.8165 137.119H40.1893C34.7551 137.119 30.3333 132.869 30.3333 127.646V107.871C30.3333 102.645 34.754 98.3938 40.1893 98.3938H117.998C123.436 98.3938 127.858 102.646 127.858 107.871V127.647C127.858 132.87 123.434 137.12 117.998 137.12H89.3752L82.5063 143.621C81.5655 144.51 80.3279 144.954 79.0914 144.954ZM40.1893 99.0967C35.1583 99.0967 31.0658 103.032 31.0658 107.871V127.647C31.0658 132.483 35.1583 136.416 40.1893 136.416H69.1167L76.1895 143.119C77.7888 144.63 80.3917 144.63 81.9922 143.119L89.074 136.416H117.997C123.03 136.416 127.125 132.483 127.125 127.647V107.871C127.125 103.033 123.03 99.0967 117.997 99.0967H40.1893Z" fill="#1A1B22"/>
<path d="M47.5691 122.128C47.4515 121.661 47.3731 121.096 47.3339 120.435C47.2947 119.774 47.2499 118.38 47.2006 116.254C46.7392 117.194 46.2576 118.044 45.7558 118.805C45.0043 119.958 44.4958 120.848 44.2304 121.477C44.2494 121.552 44.2595 121.621 44.2595 121.682C44.2595 121.966 44.1262 122.215 43.8619 122.43C43.5964 122.645 43.2772 122.752 42.9032 122.752C42.5392 122.752 42.2547 122.664 42.0475 122.487C41.8414 122.309 41.7529 122.051 41.782 121.71L41.6936 120.868L41.502 118.324C41.4528 117.663 41.3609 116.928 41.2254 116.12C41.0899 115.313 40.8827 114.2 40.6027 112.783C40.5836 112.703 40.5736 112.633 40.5736 112.571C40.5736 112.302 40.6923 112.062 40.9308 111.852C41.1694 111.642 41.4584 111.537 41.7966 111.537C42.0128 111.537 42.2032 111.593 42.3678 111.704C42.5324 111.815 42.6713 112.034 42.7844 112.363C42.8976 112.691 43.0286 113.457 43.1787 114.662C43.3288 115.866 43.4576 117.22 43.5662 118.722C44.1307 117.763 44.7142 116.675 45.3134 115.455C46.0504 113.906 46.644 112.9 47.0942 112.437C47.5433 111.974 47.9185 111.743 48.2187 111.743C48.5088 111.743 48.754 111.851 48.9556 112.069C49.1572 112.286 49.258 112.865 49.258 113.805C49.258 113.999 49.2435 114.471 49.2132 115.223C49.1785 116.115 49.2424 117.596 49.4048 119.665C49.8572 118.943 50.4419 117.95 51.1598 116.689L52.3537 114.606C52.4232 114.478 52.6192 114.042 52.944 113.295C53.4356 112.124 54.0225 111.538 54.7068 111.538C54.9868 111.538 55.2075 111.611 55.3699 111.758C55.5323 111.904 55.614 112.093 55.614 112.325C55.614 112.424 55.5905 112.534 55.5435 112.654C55.4964 112.775 55.3542 113.042 55.1156 113.455C54.8771 113.869 54.6598 114.274 54.4627 114.674C54.2667 115.073 54.0102 115.537 53.6966 116.066C53.3819 116.595 53.0873 117.076 52.8118 117.511L51.2707 119.991C50.9604 120.492 50.7129 120.911 50.5259 121.245C50.0835 122.039 49.7374 122.535 49.4865 122.733C49.2368 122.931 48.9433 123.031 48.6096 123.031C48.3049 123.031 48.0462 122.946 47.8356 122.776C47.6228 122.603 47.5344 122.388 47.5691 122.128ZM59.198 113.25C59.002 114.393 58.8273 115.326 58.675 116.048C59.2843 116.001 60.2598 115.914 61.6016 115.787C62.5502 115.702 63.155 115.659 63.4148 115.659C63.6904 115.659 63.9088 115.732 64.0712 115.878C64.2336 116.025 64.3142 116.218 64.3142 116.46C64.3142 116.734 64.2224 116.979 64.0376 117.197C63.8539 117.414 63.5571 117.539 63.1494 117.573C62.7417 117.606 62.11 117.664 61.2544 117.746C60.3987 117.829 59.3862 117.913 58.2169 117.998C57.9313 119.335 57.7891 120.239 57.7891 120.712C57.7891 120.877 57.8081 120.988 57.8473 121.044C57.8865 121.101 58.1867 121.129 58.7467 121.129H59.3212L61.5108 121.087C61.5747 121.087 61.8032 121.064 62.1974 121.016C62.5312 120.974 62.8022 121.026 63.0083 121.172C63.2144 121.319 63.3174 121.526 63.3174 121.795C63.3174 122.301 63.108 122.635 62.6868 122.798C62.2668 122.96 61.1076 123.042 59.2104 123.042C57.6177 123.042 56.64 122.865 56.276 122.515C55.912 122.163 55.7305 121.611 55.7305 120.86C55.7305 120.057 55.9758 118.637 56.4675 116.602C56.9099 114.821 57.1305 113.631 57.1305 113.03C57.1552 112.525 57.1977 112.165 57.2593 111.949C57.3209 111.734 57.4486 111.556 57.6424 111.414C57.8361 111.272 58.0881 111.201 58.3984 111.201C58.619 111.201 58.806 111.265 58.9595 111.393C60.1097 111.11 61.1614 110.968 62.1145 110.968C62.8716 110.968 63.6344 111.044 64.4038 111.198C65.1732 111.352 65.5574 111.648 65.5574 112.087C65.5574 112.404 65.4387 112.679 65.2001 112.913C64.9616 113.146 64.6872 113.264 64.378 113.264C64.2694 113.264 64.1641 113.25 64.0611 113.222C63.295 113.018 62.5356 112.917 61.783 112.917C60.9956 112.916 60.1321 113.028 59.198 113.25ZM64.9974 121.469L65.5137 119.244C65.9606 117.298 66.3985 115.014 66.8264 112.393C66.8656 112.142 66.9988 111.918 67.224 111.72C67.4502 111.522 67.7134 111.423 68.0124 111.423C68.2723 111.423 68.484 111.498 68.6464 111.65C68.8088 111.802 68.8894 111.998 68.8894 112.238C68.8894 112.422 68.764 113.177 68.5142 114.505L67.9318 117.523C67.794 118.208 67.5219 119.396 67.1131 121.087C68.2734 121.073 69.8112 120.797 71.7286 120.258C71.8518 120.23 71.9627 120.216 72.0601 120.216C72.3603 120.216 72.5787 120.304 72.7164 120.479C72.8542 120.653 72.9225 120.835 72.9225 121.025C72.9225 121.454 72.7097 121.781 72.2841 122.006C71.8585 122.23 71.0118 122.453 69.7406 122.673C68.4694 122.892 67.402 123.002 66.5374 123.002C65.4902 123.002 64.9672 122.615 64.9672 121.84C64.9672 121.724 64.9772 121.601 64.9974 121.469ZM82.2521 111.853C82.512 111.65 82.7875 111.549 83.0776 111.549C83.6185 111.549 83.8884 111.899 83.8884 112.597C83.8884 113.438 83.7708 114.016 83.5345 114.329C83.2982 114.644 82.9812 114.801 82.5836 114.801C82.1312 114.801 81.8388 114.579 81.7067 114.134C81.6473 113.927 81.579 113.802 81.5006 113.759C81.4222 113.716 81.2228 113.695 80.9036 113.695C80.1566 113.695 79.1856 114.344 77.9916 115.644C76.7977 116.943 76.1996 118.076 76.1996 119.045C76.1996 119.466 76.3441 119.828 76.6308 120.132C76.9176 120.437 77.2905 120.59 77.7475 120.59C78.1608 120.59 78.5427 120.524 78.8944 120.392C79.246 120.259 79.7904 119.974 80.5273 119.535C80.9507 119.29 81.2576 119.167 81.4491 119.167C81.7145 119.167 81.9307 119.248 82.0976 119.408C82.2644 119.568 82.3484 119.772 82.3484 120.017C82.3484 120.254 82.26 120.466 82.083 120.654C81.906 120.844 81.523 121.112 80.9328 121.459C80.3425 121.806 79.7545 122.07 79.1665 122.252C78.5796 122.434 78.0006 122.524 77.4305 122.524C76.4281 122.524 75.6228 122.209 75.0158 121.578C74.4088 120.947 74.1052 120.204 74.1052 119.35C74.1052 117.824 74.9284 116.179 76.5748 114.414C78.2212 112.65 79.7691 111.767 81.2195 111.767C81.663 111.768 82.0068 111.796 82.2521 111.853ZM84.1281 118.996C84.1281 118.003 84.4563 116.904 85.1126 115.697C85.7689 114.491 86.6548 113.507 87.7704 112.746C88.8859 111.985 90.063 111.605 91.3017 111.605C94.2955 111.605 95.7918 112.76 95.7918 115.07C95.7918 116.931 95.1064 118.681 93.7355 120.321C92.3635 121.96 90.7216 122.779 88.8108 122.779C87.4388 122.779 86.3166 122.425 85.4419 121.717C84.566 121.009 84.1281 120.101 84.1281 118.996ZM86.2516 118.649C86.2516 119.292 86.5216 119.819 87.0625 120.232C87.6035 120.646 88.2912 120.853 89.1267 120.853C90.3307 120.853 91.3891 120.25 92.3008 119.045C93.2124 117.841 93.6683 116.605 93.6683 115.339C93.6683 114.687 93.4667 114.224 93.0635 113.95C92.6603 113.677 91.967 113.539 90.9848 113.539C90.1884 113.539 89.4212 113.814 88.6843 114.362C87.9473 114.909 87.3571 115.61 86.9147 116.463C86.4723 117.315 86.2516 118.044 86.2516 118.649ZM100.594 116.02C100.438 116.361 100.078 117.278 99.518 118.773C98.958 120.268 98.5963 121.28 98.435 121.809C98.1304 122.48 97.7025 122.816 97.1526 122.816C96.8972 122.816 96.6945 122.74 96.5444 122.586C96.3944 122.432 96.3204 122.238 96.3204 122.001C96.3204 121.402 96.652 120.405 97.315 119.011C97.7036 118.188 97.9915 117.549 98.1774 117.09L99.3713 113.973C99.7689 112.943 100.118 112.286 100.419 112.003C100.719 111.72 101.048 111.578 101.406 111.578C101.894 111.578 102.195 111.814 102.314 112.286C102.431 112.759 102.503 113.926 102.527 115.787C102.547 117.336 102.618 118.512 102.741 119.315C103.434 118.069 104.233 116.337 105.137 114.122L105.816 112.492C106.096 111.816 106.565 111.479 107.224 111.479C107.528 111.479 107.775 111.633 107.961 111.94C108.148 112.246 108.241 112.877 108.241 113.831L108.226 115.51C108.22 116.119 108.241 116.787 108.284 117.512C108.329 118.238 108.397 118.935 108.49 119.606C108.677 120.915 108.77 121.687 108.77 121.923C108.77 122.164 108.643 122.394 108.387 122.614C108.132 122.833 107.844 122.943 107.525 122.943C106.984 122.943 106.648 122.569 106.515 121.823L106.389 120.116C106.369 119.833 106.355 118.37 106.344 115.73C106.262 115.886 106.16 116.103 106.042 116.382C105.413 117.837 104.941 118.852 104.626 119.429L103.912 120.741C103.494 121.506 103.161 122.018 102.916 122.278C102.67 122.537 102.363 122.667 101.994 122.667C101.577 122.667 101.289 122.405 101.132 121.881L100.94 120.563C100.837 119.84 100.722 118.325 100.594 116.02ZM113.934 113.25C113.738 114.393 113.563 115.326 113.411 116.048C114.02 116.001 114.995 115.914 116.337 115.787C117.286 115.702 117.891 115.659 118.15 115.659C118.426 115.659 118.644 115.732 118.807 115.878C118.969 116.025 119.05 116.218 119.05 116.46C119.05 116.734 118.958 116.979 118.773 117.197C118.589 117.414 118.293 117.539 117.885 117.573C117.477 117.606 116.846 117.664 115.99 117.746C115.134 117.829 114.122 117.913 112.952 117.998C112.667 119.335 112.525 120.239 112.525 120.712C112.525 120.877 112.544 120.988 112.583 121.044C112.622 121.101 112.922 121.129 113.482 121.129H114.057L116.246 121.087C116.31 121.087 116.539 121.064 116.933 121.016C117.267 120.974 117.538 121.026 117.744 121.172C117.95 121.319 118.053 121.526 118.053 121.795C118.053 122.301 117.843 122.635 117.422 122.798C117.002 122.96 115.843 123.042 113.946 123.042C112.353 123.042 111.375 122.865 111.011 122.515C110.647 122.163 110.466 121.611 110.466 120.86C110.466 120.057 110.711 118.637 111.203 116.602C111.645 114.821 111.866 113.631 111.866 113.03C111.891 112.525 111.933 112.165 111.995 111.949C112.056 111.734 112.184 111.556 112.378 111.414C112.572 111.272 112.824 111.201 113.134 111.201C113.355 111.201 113.542 111.265 113.695 111.393C114.845 111.11 115.897 110.968 116.85 110.968C117.607 110.968 118.37 111.044 119.139 111.198C119.909 111.352 120.293 111.648 120.293 112.087C120.293 112.404 120.174 112.679 119.936 112.913C119.697 113.146 119.423 113.264 119.114 113.264C119.005 113.264 118.9 113.25 118.797 113.222C118.031 113.018 117.27 112.917 116.519 112.917C115.731 112.916 114.868 113.028 113.934 113.25Z" fill="white"/>
<path d="M247.096 182.828L243.866 184.782C242.349 185.691 240.358 185.255 239.41 183.808L237.377 180.703C236.43 179.256 236.882 177.342 238.389 176.431L241.621 174.468C243.126 173.557 245.119 173.992 246.076 175.442L248.107 178.556C249.055 180.003 248.601 181.917 247.096 182.828ZM54.6483 88.1443L52.2649 90.6244C51.1438 91.7805 49.2656 91.8526 48.0627 90.7848L45.4822 88.4941C44.2793 87.4263 44.2054 85.62 45.3165 84.465L47.6998 81.9752C48.8109 80.8191 50.6891 80.748 51.9021 81.8148L54.4825 84.1151C55.6854 85.1819 55.7593 86.9871 54.6483 88.1443ZM248.131 100.438L245.924 101.773C244.888 102.393 243.528 102.096 242.881 101.108L241.492 98.9873C240.845 97.9991 241.154 96.6912 242.183 96.069L244.391 94.7278C245.419 94.1056 246.78 94.4027 247.434 95.393L248.82 97.5201C249.468 98.5083 249.159 99.8162 248.131 100.438ZM60.3693 65.9609L58.1629 67.2957C57.1269 67.9157 55.7672 67.6186 55.1198 66.6304L53.731 64.5098C53.0837 63.5217 53.3928 62.2138 54.4221 61.5916L56.6296 60.2504C57.6577 59.6282 59.0185 59.9253 59.6726 60.9156L61.0592 63.0427C61.7077 64.0308 61.3974 65.3376 60.3693 65.9609Z" fill="#F7AE00"/>
</svg>
