<svg width="280" height="280" viewBox="0 0 280 280" fill="none" xmlns="http://www.w3.org/2000/svg">
<g clip-path="url(#clip0_1_17956)">
<path d="M177.532 167.871C177.532 181.486 188.569 192.523 202.184 192.523C215.798 192.523 226.835 181.486 226.835 167.871C226.835 154.262 215.798 143.225 202.184 143.225C188.569 143.225 177.532 154.262 177.532 167.871Z" fill="#6C6D76"/>
<path d="M163.168 231.545L162.084 250.233L147.364 249.863L149.811 230.902L163.168 231.545Z" fill="#FFC7C1"/>
<path d="M162.279 242.844C157.708 246.096 151.286 245.554 148.207 244.183C147.753 243.981 147.228 244.214 147.089 244.692C146.385 247.096 145.738 250.679 145.612 254.163C145.538 256.208 147.253 257.871 149.297 257.777L175.841 256.562C177.7 256.477 179.193 254.961 179.205 253.1C179.222 250.441 177.941 248.362 170.059 245.719L163.075 242.749C162.811 242.637 162.512 242.678 162.279 242.844Z" fill="#595A62"/>
<path d="M148.898 237.041L158.87 237.041C162.358 237.041 165.335 234.525 165.918 231.087C168.036 218.588 172.476 189.852 170.593 178.686C168.331 165.28 147.824 129.298 147.824 129.298L124.574 137.865C124.574 137.865 120.855 160.323 142.641 185.521C141.32 199.697 143.692 217.16 147.175 235.612C147.331 236.439 148.056 237.041 148.898 237.041Z" fill="url(#paint0_linear_1_17956)"/>
<path d="M69.6161 77.0021C69.8389 79.5166 64.0486 84.1925 61.8641 83.2576C61.8641 83.2576 53.0015 79.6361 57.8445 74.6149C63.2849 68.9743 65.3187 74.2318 65.3187 74.2318" fill="#FFC7C1"/>
<path d="M122.021 79.8411C122.021 79.8411 103.601 77.0725 88.4619 97.6468C83.7072 90.1526 77.7645 83.2826 70.4195 77.1497C68.7369 76.3375 61.8322 82.438 61.7336 84.229C61.7336 84.229 74.5927 115.821 86.5746 116.472C108.237 117.648 121.387 93.0932 121.387 93.0932" fill="#6C6D76"/>
<path d="M189.862 61.8218C189.862 61.8218 193.599 58.705 188.541 54.9539C182.859 50.7401 185.181 56.0363 185.181 56.0363C185.181 56.0363 183.532 51.8225 182.491 52.1572C180.902 52.668 181.396 55.7792 182.077 58.6743C182.252 60.9463 188.056 62.9788 189.862 61.8218Z" fill="#FFC7C1"/>
<path d="M242.212 26.125L250.254 60.1594C251.177 64.0657 248.743 67.9843 244.817 68.9119C240.891 69.8395 236.961 67.4248 236.038 63.5186L227.996 29.4841C227.073 25.5779 229.507 21.6593 233.433 20.7317C237.358 19.8041 241.289 22.2187 242.212 26.125Z" fill="#F7AE00"/>
<path d="M242.236 26.2284L228.02 29.5876L228.694 32.4366L242.91 29.0774L242.236 26.2284Z" fill="white"/>
<path d="M228.466 32.4901L227.793 29.6414C227.764 29.516 227.841 29.3905 227.967 29.3606L242.183 26.0015C242.31 25.9723 242.434 26.0506 242.464 26.1751L243.137 29.0239C243.167 29.1492 243.089 29.2747 242.963 29.3046L228.747 32.6638C228.621 32.6932 228.496 32.6152 228.466 32.4901ZM228.301 29.7612L228.867 32.1559L242.629 28.904L242.063 26.5094L228.301 29.7612Z" fill="#A9A9A9"/>
<path d="M249.556 57.2068L235.34 60.566L236.013 63.415L250.229 60.0557L249.556 57.2068Z" fill="white"/>
<path d="M235.786 63.4685L235.113 60.6195C235.083 60.4942 235.161 60.3684 235.287 60.3387L249.503 56.9796C249.63 56.9506 249.754 57.0292 249.783 57.1532L250.457 60.0022C250.486 60.1275 250.408 60.2531 250.283 60.2829L236.067 63.6421C235.941 63.6714 235.816 63.5939 235.786 63.4685ZM235.621 60.7393L236.187 63.1342L249.949 59.8823L249.383 57.4875L235.621 60.7393ZM231.505 44.3387L232.527 48.6645L228.241 49.6771C227.747 49.7939 227.252 49.4899 227.136 48.998L226.535 46.4535C226.418 45.9616 226.725 45.4682 227.219 45.3514L231.505 44.3387Z" fill="#9E9E9E"/>
<path d="M37.2502 82.2236C37.227 82.0969 37.311 81.9755 37.438 81.9524L226.793 47.4964C226.919 47.4715 227.042 47.5572 227.065 47.6841C227.088 47.8108 227.004 47.9323 226.877 47.9553L37.5214 82.4114C37.3997 82.4349 37.2736 82.354 37.2502 82.2236Z" fill="#6C6D76"/>
<path d="M136.516 79.7037C149.923 80.6975 157.203 83.1016 168.902 85.7452C171.195 76.7363 175.846 67.2253 181.16 58.728C181.29 58.2028 191.12 61.6956 190.942 62.337C190.942 62.337 190.686 93.5896 178.826 101.905C166.838 110.311 140.872 100.114 140.872 100.114" fill="#6C6D76"/>
<path d="M110.838 231.468L102.727 248.34L89.2542 242.398L98.7294 225.794L110.838 231.468Z" fill="#FFC7C1"/>
<path d="M105.787 241.413C100.323 242.682 94.589 239.738 92.2633 237.299C91.9201 236.939 91.3461 236.956 91.0354 237.344C89.47 239.301 87.5087 242.368 86.0676 245.542C85.2214 247.406 86.1747 249.595 88.1014 250.286L113.112 259.258C114.864 259.886 116.821 259.052 117.54 257.336C118.567 254.883 118.173 252.473 111.889 247.031L106.559 241.628C106.358 241.424 106.066 241.348 105.787 241.413Z" fill="#595A62"/>
<path d="M95.922 231.929L104.415 235.481C107.748 236.875 111.598 235.594 113.427 232.479C119.818 221.592 133.555 197.176 134.858 186.324C136.383 173.623 124.333 136.248 124.333 136.248L99.7172 139.081C99.7172 139.081 93.6328 160.076 107.747 188.081C102.628 198.119 98.3273 212.724 94.2479 228.568C93.8925 229.948 94.6072 231.379 95.922 231.929Z" fill="url(#paint1_linear_1_17956)"/>
<path d="M133.777 174.07C133.279 171.057 132.586 167.614 131.716 163.834C131.688 163.708 131.766 163.583 131.891 163.554C132.019 163.526 132.142 163.604 132.171 163.729C133.043 167.518 133.738 170.972 134.238 173.994C134.259 174.121 134.173 174.241 134.045 174.262C133.923 174.283 133.799 174.2 133.777 174.07Z" fill="#1A1B22"/>
<path d="M98.5827 139.385C102.228 107.623 95.8091 80.3485 121.637 78.7211C141.685 77.4577 152.894 86.2856 153.211 88.6365C155.168 103.156 164.138 140.08 147.933 138.82C124.333 136.986 97.4777 149.013 98.5827 139.385Z" fill="#6C6D76"/>
<path d="M155.697 104.342C155.583 104.342 155.484 104.26 155.466 104.144C155.303 103.079 155.136 102.028 154.969 100.997C154.948 100.87 155.035 100.75 155.162 100.73C155.289 100.709 155.409 100.795 155.43 100.923C155.597 101.955 155.764 103.007 155.927 104.074C155.947 104.201 155.859 104.32 155.732 104.34C155.72 104.341 155.708 104.342 155.697 104.342Z" fill="#1A1B22"/>
<path d="M188.309 54.5813C190.386 56.0075 192.261 57.3655 191.457 58.536C190.656 59.7024 188.319 59.4899 186.243 58.0636C184.166 56.6374 183.133 54.5359 183.934 53.3694C184.737 52.199 186.233 53.155 188.309 54.5813ZM69.6224 77.1335C69.6224 77.1335 70.4194 73.1482 67.7623 72.6651C65.1052 72.1819 62.9113 73.4945 62.8299 75.4325C62.7486 77.3705 66.5136 76.3081 66.5136 76.3081C66.5136 76.3081 63.2539 78.8046 65.3977 79.7721C66.7954 78.645 68.2226 77.5615 69.6224 77.1335Z" fill="#FFC7C1"/>
<path d="M156.637 145.525H122.936V141.961H154.734L156.637 145.525Z" fill="#514716"/>
<path d="M79.701 143.206C74.8598 141.529 71.1023 138.104 69.3922 133.808C67.9316 130.139 67.817 126.119 67.7062 122.23C67.6215 119.255 67.534 116.179 66.8449 113.277C65.2184 106.426 59.8253 100.572 53.2475 98.0392C52.8147 102.365 50.6434 106.8 46.5875 108.289C42.8846 109.649 38.0105 107.305 37.7113 103.403C37.5303 101.04 39.0297 98.6055 41.4416 97.3442C44.7719 95.6026 49.3598 96.1652 52.834 97.3907C53.051 94.3098 52.6148 91.1711 52.3691 88.0865C52.0856 84.5252 52.0357 80.4109 53.814 76.8961C56.0427 72.4917 61.1483 69.4242 67.1384 68.8908C72.3752 68.4243 77.6108 69.7209 82.9606 71.2086C111.721 79.2067 133.755 80.6657 154.402 75.9411C156.537 75.4524 158.718 75.17 160.827 74.8968C166.656 74.1417 172.162 73.4285 175.546 68.5228C178.355 64.4504 179.721 59.5556 181.042 54.822C182.049 51.2114 183.091 47.4781 184.768 44.0829C188.49 36.5499 195.539 30.6886 203.624 28.4036C212.321 25.9449 221.884 27.0325 228.582 31.2412C228.691 31.3097 228.724 31.4538 228.655 31.5629C228.587 31.6718 228.443 31.7051 228.333 31.6363C221.744 27.496 212.326 26.4296 203.751 28.8525C195.791 31.1022 188.851 36.8731 185.186 44.2898C183.528 47.6456 182.493 51.3575 181.491 54.9473C180.16 59.7179 178.784 64.6511 175.93 68.7875C172.428 73.8646 166.822 74.5908 160.887 75.3596C158.788 75.6312 156.619 75.9124 154.506 76.3959C133.779 81.1392 111.675 79.6777 82.8357 71.6584C77.529 70.1825 72.3383 68.8967 67.1799 69.3556C62.6098 69.7626 56.8081 72.0125 54.2305 77.1067C52.5042 80.5185 52.556 84.553 52.8344 88.0496C53.0846 91.1937 53.5324 94.3898 53.2899 97.5573C60.0634 100.12 65.6276 106.129 67.2988 113.169C67.999 116.118 68.0874 119.218 68.1727 122.217C68.2823 126.065 68.3957 130.043 69.8256 133.635C71.4856 137.805 75.1408 141.133 79.8537 142.765C84.5671 144.397 89.4967 144.043 93.3804 141.793C93.4921 141.728 93.6347 141.766 93.6992 141.878C93.7639 141.989 93.7258 142.132 93.6142 142.197C89.4411 144.615 84.332 144.81 79.701 143.206ZM41.6581 97.7576C39.4439 98.9154 38.0123 101.222 38.1766 103.367C38.4537 106.988 43.0619 109.086 46.4266 107.851C50.3297 106.418 52.3986 102.101 52.7948 97.871C49.4019 96.6532 44.8884 96.0686 41.6581 97.7576Z" fill="#6C6D76"/>
<path d="M122.936 134.073H92.4169V153.413H122.936V134.073Z" fill="white"/>
<path d="M122.936 153.647H92.4169C92.288 153.647 92.1836 153.542 92.1836 153.413V134.073C92.1836 133.944 92.288 133.84 92.4169 133.84H122.936C123.065 133.84 123.17 133.944 123.17 134.073V153.413C123.17 153.542 123.065 153.647 122.936 153.647ZM92.6503 153.18H122.703V134.307H92.6503V153.18Z" fill="#1A1B22"/>
<path d="M102.681 139.382C102.681 140.427 101.834 141.274 100.789 141.274C99.7444 141.274 98.9019 140.427 98.9019 139.382C98.9019 138.337 99.7444 137.495 100.789 137.495C101.834 137.495 102.681 138.337 102.681 139.382Z" fill="#514716"/>
<path d="M109.566 139.382C109.566 140.427 108.719 141.274 107.674 141.274C106.63 141.274 105.787 140.427 105.787 139.382C105.787 138.337 106.63 137.495 107.674 137.495C108.719 137.495 109.566 138.337 109.566 139.382Z" fill="#F7AE00"/>
<path d="M116.451 139.382C116.451 140.427 115.604 141.274 114.56 141.274C113.515 141.274 112.672 140.427 112.672 139.382C112.672 138.337 113.515 137.495 114.56 137.495C115.604 137.495 116.451 138.337 116.451 139.382Z" fill="#E98090"/>
<path d="M101.953 144.465H95.4935V150.776H101.953V144.465Z" fill="#F5C021"/>
<path d="M120.234 147.71H105.131C105.002 147.71 104.897 147.606 104.897 147.477C104.897 147.348 105.002 147.244 105.131 147.244H120.234C120.363 147.244 120.467 147.348 120.467 147.477C120.467 147.606 120.363 147.71 120.234 147.71ZM120.234 149.835H105.131C105.002 149.835 104.897 149.731 104.897 149.602C104.897 149.473 105.002 149.369 105.131 149.369H120.234C120.363 149.369 120.467 149.473 120.467 149.602C120.467 149.731 120.363 149.835 120.234 149.835ZM120.234 145.603H110.444C110.315 145.603 110.211 145.499 110.211 145.37C110.211 145.241 110.315 145.137 110.444 145.137H120.234C120.363 145.137 120.467 145.241 120.467 145.37C120.467 145.499 120.363 145.603 120.234 145.603ZM145.041 52.7732C145.041 52.7732 149.733 57.7522 144.389 62.1926L138.407 58.4214L145.041 52.7732Z" fill="#F6AE00"/>
<path d="M135.998 69.5305L134.425 76.9178L133.081 83.2225C132.306 84.7718 123.276 80.2591 124.051 78.7051L127.602 68.4991L128.004 68.5505L135.998 69.5305Z" fill="#FFC7C1"/>
<path d="M135.998 69.5305L134.425 76.9179C131.602 75.5972 129.217 72.8205 128.176 69.2132C128.111 68.9939 128.055 68.7699 128.004 68.5505L135.998 69.5305Z" fill="#1A1B22"/>
<path d="M144.389 62.1926C143.848 68.4037 143.482 74.2021 138.504 75.6372C133.528 77.0717 128.092 73.3795 126.365 67.3887C124.638 61.3998 127.275 55.3804 132.251 53.9459C137.229 52.5108 145.211 52.7675 144.389 62.1926Z" fill="#FFC7C1"/>
<path d="M142.801 58.6744C141.594 59.9731 139.506 61.4204 135.709 58.6744C131.913 55.9284 136.418 65.1099 128.875 64.2719C123.915 63.7208 127.264 69.4763 127.264 69.4763L125.976 73.176C125.976 73.176 111.029 55.3676 124.151 56.0385C124.151 56.0385 121.978 47.2741 133.481 46.1298C143.244 45.1585 151.362 49.4629 142.801 58.6744Z" fill="#F6AE00"/>
<path d="M130.951 67.4864C130.529 68.9475 129.005 69.789 127.546 69.3679C126.087 68.9467 125.243 67.4221 125.665 65.9609C126.086 64.5017 127.612 63.6607 129.071 64.0819C130.531 64.503 131.372 66.0271 130.951 67.4864Z" fill="#FFC7C1"/>
<path d="M132.433 65.7525C133.045 68.1115 131.726 70.0258 129.488 70.0258C127.251 70.0258 124.94 68.1115 124.328 65.7525C123.716 63.3935 125.034 61.4816 127.271 61.4816C129.509 61.4816 131.821 63.3935 132.433 65.7525Z" fill="#514716"/>
<path d="M130.989 66.081C131.276 67.1882 130.657 68.0868 129.607 68.0868C128.557 68.0868 127.472 67.1882 127.185 66.081C126.898 64.9738 127.516 64.0764 128.566 64.0764C129.617 64.0764 130.702 64.9738 130.989 66.081Z" fill="white"/>
<path d="M128.687 64.5276L127.929 64.6043C125.835 52.7715 129.486 46.8974 131.669 46.3932C133.456 45.9776 136.328 45.9136 137.388 46.028C128.549 46.3185 128.687 64.5276 128.687 64.5276Z" fill="white"/>
<path d="M226.997 96.8859C226.822 96.8032 226.748 96.5942 226.831 96.4197L236.55 75.9538C236.633 75.7795 236.842 75.7045 237.017 75.7879C237.191 75.8706 237.265 76.0796 237.183 76.2541L227.463 96.72C227.379 96.8964 227.169 96.9681 226.997 96.8859ZM222.185 107.018C222.011 106.935 221.936 106.726 222.019 106.551L223.404 103.634C223.487 103.46 223.696 103.385 223.871 103.468C224.045 103.551 224.12 103.76 224.037 103.935L222.652 106.852C222.568 107.028 222.358 107.1 222.185 107.018ZM249.809 92.4252L246.172 79.5775C246.12 79.3916 246.228 79.1981 246.414 79.1455C246.598 79.0921 246.793 79.2008 246.846 79.387L250.483 92.2347C250.536 92.4206 250.428 92.6141 250.241 92.6667C250.055 92.719 249.862 92.6115 249.809 92.4252ZM251.55 97.4138L251.101 95.6962C251.052 95.5091 251.164 95.3179 251.351 95.2689C251.538 95.2197 251.729 95.3318 251.778 95.5189L252.228 97.2366C252.277 97.4236 252.164 97.6148 251.978 97.6638C251.79 97.7126 251.599 97.6002 251.55 97.4138ZM219.683 78.4074C219.585 78.2411 219.639 78.0264 219.806 77.928L228.332 72.8749C228.497 72.7764 228.713 72.8311 228.811 72.9975C228.91 73.1638 228.855 73.3784 228.688 73.4769L220.163 78.53C219.998 78.6281 219.782 78.5747 219.683 78.4074ZM206.846 85.9614C206.748 85.7948 206.804 85.5804 206.971 85.4822L210.294 83.5259C210.462 83.4284 210.675 83.4833 210.773 83.6501C210.871 83.8167 210.816 84.0311 210.649 84.1293L207.326 86.0855C207.16 86.1827 206.945 86.1293 206.846 85.9614Z" fill="#6C6D76"/>
<path d="M238.442 94.8173C239.312 94.8173 240.017 94.112 240.017 93.2418C240.017 92.3717 239.312 91.6664 238.442 91.6664C237.572 91.6664 236.866 92.3717 236.866 93.2418C236.866 94.112 237.572 94.8173 238.442 94.8173Z" fill="#6C6D76"/>
<path d="M210.795 100.722C212.86 100.722 214.535 99.0472 214.535 96.9817C214.535 94.9162 212.86 93.2418 210.795 93.2418C208.729 93.2418 207.055 94.9162 207.055 96.9817C207.055 99.0472 208.729 100.722 210.795 100.722Z" fill="#F6AE00"/>
<path d="M190.945 115.221L184.191 120.083L183.473 106.702L190.945 115.221Z" fill="#FFD7D4"/>
<path d="M74.4433 184.877C74.4433 186.096 73.4549 187.085 72.2358 187.085H44.481C43.2618 187.085 42.2734 186.096 42.2734 184.877C42.2734 183.658 43.2618 182.67 44.481 182.67H72.2358C73.4549 182.67 74.4433 183.658 74.4433 184.877Z" fill="#514716"/>
<path d="M78.4141 206.467C78.4141 208.994 76.3608 211.048 73.8278 211.048C71.2948 211.048 69.2415 208.994 69.2415 206.467C69.2415 203.934 71.2948 201.881 73.8278 201.881C76.3608 201.881 78.4141 203.934 78.4141 206.467Z" fill="#F6AE00"/>
<path d="M37.0263 39.0133C36.7888 37.8856 36.6441 36.6989 37.1896 35.6587C37.482 35.1018 37.9628 34.6554 38.5375 34.3635C37.3312 32.4371 35.1303 30.7668 32.8739 31.3197C29.7872 32.0767 29.4117 35.8417 29.1631 38.3331L29.1576 38.3892C29.1194 38.7741 28.7789 39.0527 28.3916 39.0163C28.0069 38.9778 27.7262 38.6348 27.7645 38.2502L27.7702 38.1941C28.0402 35.4858 28.4925 30.9528 32.5405 29.9598C35.5409 29.2254 38.4301 31.3217 39.9361 33.9862C41.4969 33.8994 42.9517 34.8829 43.7603 36.2646C44.2199 37.05 44.5059 37.9695 44.6287 39.0607H55.5471C55.9338 39.0607 56.2471 39.374 56.2471 39.7607C56.2471 40.1474 55.9338 40.4607 55.5471 40.4607H43.9832C43.6104 40.4607 43.303 40.1686 43.2841 39.7963C43.2253 38.6371 42.9858 37.7131 42.5518 36.9714C42.0849 36.1732 41.3621 35.6058 40.6005 35.4329C41.0214 36.5991 41.2115 37.8471 41.124 39.089C40.9221 41.9533 37.8005 42.6793 37.0263 39.0133ZM39.1734 35.6079C38.8517 35.7701 38.5853 36.0119 38.4295 36.309C38.0726 36.9897 38.2251 37.9127 38.3962 38.7246C38.504 39.2355 38.7493 40.1679 39.2589 40.0658C39.4899 40.0171 39.687 39.565 39.7276 38.9908C39.8087 37.8364 39.6066 36.6759 39.1734 35.6079Z" fill="#514716"/>
<path d="M142.91 28.4057C142.91 31.0468 145.052 33.1883 147.693 33.1883C150.334 33.1883 152.47 31.0468 152.47 28.4057C152.47 25.7697 150.334 23.6282 147.693 23.6282C145.052 23.6282 142.91 25.7697 142.91 28.4057Z" fill="#F7AE00"/>
<path d="M89.0101 168.574H64.8818C64.4951 168.574 64.1818 168.261 64.1818 167.874C64.1818 167.487 64.4951 167.174 64.8818 167.174H89.0101C89.3968 167.174 89.7101 167.487 89.7101 167.874C89.7101 168.261 89.3968 168.574 89.0101 168.574Z" fill="#2A2B39"/>
<path d="M193.506 49.9902C193.436 49.6099 193.688 49.2449 194.068 49.1747L219.629 44.4543C220.011 44.3841 220.375 44.6354 220.445 45.0155C220.515 45.3958 220.264 45.7608 219.884 45.831L194.322 50.5515C193.941 50.6219 193.576 50.3699 193.506 49.9902Z" fill="#514716"/>
<path d="M170.77 168.658L158.616 142.058C158.563 141.941 158.614 141.803 158.731 141.749C158.849 141.695 158.987 141.747 159.041 141.864L171.195 168.464C171.248 168.582 171.197 168.72 171.08 168.774C170.962 168.827 170.824 168.775 170.77 168.658Z" fill="#514715"/>
<path d="M105.639 66.9338L107.268 60.1246L93.943 59.7C93.6996 59.6923 93.6306 59.362 93.8491 59.2568L104.223 54.2564L103.249 38.1388C103.233 37.8834 103.583 37.7938 103.693 38.0249L111.19 53.8631L113.777 45.8488C113.847 45.6318 114.142 45.6449 114.217 45.8356L117.792 54.9775C117.839 55.0976 117.78 55.233 117.66 55.2799C117.539 55.3271 117.404 55.2676 117.357 55.1475L114.02 46.6149L111.453 54.5669C111.389 54.7648 111.113 54.7891 111.021 54.595L103.787 39.316L104.698 54.3844C104.704 54.479 104.652 54.5676 104.567 54.6086L94.9089 59.2639L107.569 59.6672C107.639 59.6693 107.704 59.703 107.747 59.7588C107.789 59.8144 107.804 59.8864 107.788 59.9546L106.206 66.5713L114.819 62.5363C114.935 62.4811 115.074 62.5319 115.129 62.6486C115.183 62.7653 115.133 62.904 115.016 62.9587L105.965 67.1993C105.79 67.2817 105.594 67.125 105.639 66.9338Z" fill="#514715"/>
</g>
<defs>
<linearGradient id="paint0_linear_1_17956" x1="171.048" y1="237.041" x2="89.3057" y2="176.93" gradientUnits="userSpaceOnUse">
<stop offset="0.121807" stop-color="#EFA607"/>
<stop offset="1" stop-color="#FCD93A"/>
</linearGradient>
<linearGradient id="paint1_linear_1_17956" x1="134.991" y1="236.042" x2="60.6876" y2="184.475" gradientUnits="userSpaceOnUse">
<stop offset="0.121807" stop-color="#EFA607"/>
<stop offset="1" stop-color="#FCD93A"/>
</linearGradient>
<clipPath id="clip0_1_17956">
<rect width="280" height="280" fill="white"/>
</clipPath>
</defs>
</svg>
