<svg width="280" height="280" viewBox="0 0 280 280" fill="none" xmlns="http://www.w3.org/2000/svg">
<g clip-path="url(#clip0_1_17966)">
<path d="M199.771 98.0679C199.771 106.633 192.826 113.578 184.261 113.578C175.69 113.578 168.745 106.633 168.745 98.0679C168.745 89.4974 175.69 82.5524 184.261 82.5524C192.826 82.5524 199.771 89.4974 199.771 98.0679Z" fill="#595A62"/>
<path d="M224.623 61.8002V68.5715H214.88L211.636 61.8002H224.623Z" fill="#F7AE00"/>
<path d="M252.258 135.905L245.529 136.668L246.626 146.349L253.72 148.81L252.258 135.905Z" fill="#F7AE00"/>
<path d="M97.9357 228.721C149.817 228.721 191.875 225.041 191.875 220.501C191.875 215.962 149.817 212.281 97.9357 212.281C46.0545 212.281 3.99658 215.962 3.99658 220.501C3.99658 225.041 46.0545 228.721 97.9357 228.721Z" fill="#3A3B43"/>
<path d="M257.382 239.897C257.382 239.897 266.123 248.43 258.646 249.365C250.246 250.416 247.945 244.145 247.945 244.145C247.945 244.145 240.994 246.922 239.204 245.961C237.146 244.857 241.122 242.605 243.533 239.988L257.382 239.897ZM180.837 57.8977C180.837 57.8977 182.711 53.4417 188.286 54.9087C193.293 56.2264 195.72 65.1252 184.379 65.4395L180.837 57.8977Z" fill="#FFC7C1"/>
<path d="M43.6678 202.986L22.9124 207.083L24.5592 221.576L44.9283 217.402L43.6678 202.986Z" fill="#FFC7C1"/>
<path d="M31.7519 205.124C28.4145 210.231 29.2801 217.187 30.9026 220.473C31.1421 220.958 30.9109 221.538 30.3981 221.71C27.8152 222.578 23.9505 223.436 20.1704 223.723C17.9508 223.891 16.0707 222.1 16.0843 219.874L16.2614 190.979C16.2738 188.956 17.8568 187.267 19.8783 187.175C22.7669 187.042 25.0808 188.344 28.2925 196.794L31.8208 204.256C31.9538 204.537 31.9221 204.864 31.7519 205.124Z" fill="#595A62"/>
<path d="M179.896 184.176C179.896 184.176 122.819 130.765 100.833 133.686C83.2308 136.025 48.8009 199.814 48.8009 199.814L70.1943 207.248C87.1123 193.191 94.5095 184.399 101.11 169.932C101.11 169.932 128.335 205.027 155.574 200.941C173.985 198.179 179.896 184.176 179.896 184.176Z" fill="url(#paint0_linear_1_17966)"/>
<path d="M185.245 188.947C185.245 188.947 190.491 220.268 156.463 224.79C133.844 227.797 61.3057 224.386 41.8207 223.394C39.0972 223.255 36.964 221.006 36.964 218.279V208.688C36.964 204.664 39.8878 201.236 43.8615 200.602L175.499 179.594L185.245 188.947Z" fill="url(#paint1_linear_1_17966)"/>
<path d="M120.055 188.676C119.942 188.676 119.843 188.594 119.825 188.479C119.805 188.352 119.891 188.232 120.018 188.212L168.454 180.482C168.583 180.463 168.7 180.548 168.721 180.676C168.741 180.803 168.655 180.923 168.528 180.943L120.092 188.673C120.079 188.675 120.067 188.676 120.055 188.676Z" fill="#1A1B22"/>
<path d="M208.213 116.59C187.335 104.093 172.21 99.1928 158.167 93.2796C172.032 79.3403 174.652 77.7301 186.639 67.8373C188.058 65.8133 180.972 54.7283 177.918 55.7368C177.918 55.7368 135.246 72.4987 129.66 93.2796C124.714 111.681 169.213 128.061 176.343 130.887L208.213 116.59Z" fill="#6C6D76"/>
<path d="M189.496 196.774C210.253 198.668 255.798 142.442 205.496 114.951C173.934 97.7008 183.815 134.105 151.884 160.365C151.884 160.365 175.1 195.461 189.496 196.774Z" fill="#6C6D76"/>
<path d="M174.338 130.352C174.222 130.295 174.175 130.156 174.232 130.04C174.678 129.137 175.109 128.253 175.531 127.389L176.071 126.284C176.128 126.168 176.269 126.122 176.383 126.177C176.499 126.234 176.547 126.373 176.49 126.489L175.95 127.594C175.528 128.458 175.096 129.343 174.65 130.247C174.594 130.361 174.454 130.41 174.338 130.352Z" fill="#1A1B22"/>
<path d="M224.23 132.428C230.322 144.755 244.109 197.062 260.449 239.055C260.449 242.566 241.179 242.311 239.13 237.732C221.367 198.038 196.876 154.568 196.876 154.568" fill="#6C6D76"/>
<path d="M223.565 131.833C217.973 136.439 209.809 126.407 215.408 121.808L216.192 121.209L216.394 121.049L218.017 119.759L218.033 119.778C220.026 122.145 223.089 123.814 226.338 124.599C227.672 124.924 229.041 125.101 230.38 125.106L223.565 131.833Z" fill="#FFC7C1"/>
<path d="M226.338 124.599C222.8 124.455 219.107 123.192 216.394 121.049L218.017 119.759L218.033 119.778C220.026 122.145 223.089 123.814 226.338 124.599Z" fill="#F6AE00"/>
<path d="M228.112 100.63C220.871 106.837 214.507 110.849 216.111 116.271C218.053 122.833 227.264 126.328 233.918 124.725C240.571 123.121 241.809 117.119 240.206 110.465C238.602 103.812 233.308 96.1758 228.112 100.63Z" fill="#FFC7C1"/>
<path d="M228.68 100.223C228.68 100.223 225.369 108.167 235.551 115.632C241.912 120.296 229.616 116.523 230.453 123.174C231.001 127.532 239.37 125.253 241.944 123.638C246.708 120.649 241.19 87.0815 229.426 97.4872C227.763 98.9583 225.921 100.346 224.914 103.286L228.68 100.223Z" fill="#F6AE00"/>
<path d="M237.575 121.126C236.15 122.309 234.036 122.117 232.852 120.693C231.669 119.268 231.864 117.151 233.289 115.967C234.71 114.787 236.827 114.982 238.011 116.407C239.195 117.832 238.996 119.945 237.575 121.126Z" fill="#F6AE00"/>
<path d="M231.99 125.049C230.283 125.166 228.811 123.996 228.705 122.438C228.598 120.876 229.897 119.517 231.604 119.4C233.315 119.283 234.787 120.453 234.894 122.016C235 123.573 233.701 124.932 231.99 125.049Z" fill="#FFC7C1"/>
<path d="M138.516 199.065C138.444 198.958 138.471 198.813 138.577 198.74C162.05 182.703 167.366 151.903 159.675 140.8C156.873 136.752 152.425 134.348 147.327 131.841C137.597 127.059 127.594 122.238 120.101 114.458C111.664 105.696 108.282 93.9957 111.485 84.6505C114.021 77.2545 120.632 71.0128 129.625 67.5256C137.663 64.4079 146.352 63.7134 154.755 63.0421L190.309 60.2006C195.315 59.8014 200.201 59.4801 204.954 59.9349C205.082 59.9472 205.176 60.0612 205.164 60.1897C205.152 60.3182 205.036 60.4089 204.909 60.3998C200.193 59.9477 195.329 60.2681 190.347 60.6655L154.792 63.5069C146.422 64.1759 137.768 64.8677 129.793 67.9603C120.929 71.3979 114.417 77.5361 111.926 84.8018C108.779 93.9834 112.12 105.497 120.438 114.134C127.883 121.867 137.884 126.68 147.533 131.422C152.691 133.959 157.193 136.394 160.059 140.534C167.856 151.792 162.586 182.902 138.841 199.126C138.732 199.199 138.588 199.17 138.516 199.065Z" fill="#595A62"/>
<path d="M195.172 177.387C187.344 171.127 177.061 163.243 166.315 167.648C162.978 169.016 160.229 171.682 158.771 174.963C158.718 175.081 158.581 175.133 158.463 175.081C158.346 175.029 158.292 174.891 158.345 174.773C159.851 171.384 162.691 168.63 166.139 167.216C176.951 162.782 187.368 170.548 195.463 177.022C208.354 187.324 212.878 188.761 227.718 188.12C235.619 187.779 243.807 187.017 249.459 181.887C255.386 176.507 257.71 168.267 256.18 158.058C256.161 157.93 256.248 157.812 256.376 157.793C256.501 157.775 256.622 157.861 256.641 157.989C258.196 168.36 255.821 176.743 249.773 182.233C244.005 187.467 235.725 188.242 227.738 188.587C212.589 189.239 207.992 187.635 195.172 177.387Z" fill="#595A62"/>
<path d="M163.576 202.606L157.062 240.176H132.996L126.71 199.485L163.576 202.606Z" fill="#6C6D76"/>
<path d="M155.009 238.668H130.943C130.827 238.668 130.73 238.584 130.712 238.47L124.426 197.779C124.404 197.636 124.518 197.502 124.676 197.511L161.543 200.631C161.68 200.643 161.776 200.77 161.753 200.903L155.238 238.475C155.219 238.587 155.122 238.668 155.009 238.668ZM131.143 238.202H154.812L161.249 201.075L124.932 198.001L131.143 238.202Z" fill="#6C6D76"/>
<path d="M154.119 218.616H132.206C132.077 218.616 131.973 218.511 131.973 218.382V204.207C131.973 204.078 132.077 203.974 132.206 203.974H154.119C154.248 203.974 154.353 204.078 154.353 204.207V218.382C154.353 218.511 154.248 218.616 154.119 218.616ZM132.44 218.149H153.886V204.44H132.44V218.149Z" fill="#6C6D76"/>
<path d="M149.484 228.368C149.484 231.899 146.623 234.76 143.092 234.76C139.556 234.76 136.695 231.899 136.695 228.368C136.695 224.837 139.556 221.971 143.092 221.971C146.623 221.971 149.484 224.837 149.484 228.368Z" fill="white"/>
<path d="M145.143 228.362L141.915 231.025V225.706L145.143 228.362Z" fill="#6C6D76"/>
<path d="M136.975 215.421H135.685C135.556 215.421 135.452 215.317 135.452 215.188C135.452 215.059 135.556 214.954 135.685 214.954H136.975C137.104 214.954 137.208 215.059 137.208 215.188C137.208 215.317 137.104 215.421 136.975 215.421ZM136.975 213.512H135.685C135.556 213.512 135.452 213.408 135.452 213.279C135.452 213.15 135.556 213.045 135.685 213.045H136.975C137.104 213.045 137.208 213.15 137.208 213.279C137.208 213.408 137.104 213.512 136.975 213.512ZM136.975 211.603H135.685C135.556 211.603 135.452 211.499 135.452 211.37C135.452 211.241 135.556 211.137 135.685 211.137H136.975C137.104 211.137 137.208 211.241 137.208 211.37C137.208 211.499 137.104 211.603 136.975 211.603ZM136.975 209.694H135.685C135.556 209.694 135.452 209.59 135.452 209.461C135.452 209.332 135.556 209.228 135.685 209.228H136.975C137.104 209.228 137.208 209.332 137.208 209.461C137.208 209.59 137.104 209.694 136.975 209.694ZM136.975 207.785H135.685C135.556 207.785 135.452 207.681 135.452 207.552C135.452 207.423 135.556 207.319 135.685 207.319H136.975C137.104 207.319 137.208 207.423 137.208 207.552C137.208 207.681 137.104 207.785 136.975 207.785ZM140.608 215.421H139.318C139.189 215.421 139.084 215.317 139.084 215.188C139.084 215.059 139.189 214.954 139.318 214.954H140.608C140.737 214.954 140.841 215.059 140.841 215.188C140.841 215.317 140.737 215.421 140.608 215.421ZM140.608 213.512H139.318C139.189 213.512 139.084 213.408 139.084 213.279C139.084 213.15 139.189 213.045 139.318 213.045H140.608C140.737 213.045 140.841 213.15 140.841 213.279C140.841 213.408 140.737 213.512 140.608 213.512ZM140.608 211.603H139.318C139.189 211.603 139.084 211.499 139.084 211.37C139.084 211.241 139.189 211.137 139.318 211.137H140.608C140.737 211.137 140.841 211.241 140.841 211.37C140.841 211.499 140.737 211.603 140.608 211.603ZM144.24 215.421H142.95C142.821 215.421 142.716 215.317 142.716 215.188C142.716 215.059 142.821 214.954 142.95 214.954H144.24C144.369 214.954 144.473 215.059 144.473 215.188C144.473 215.317 144.369 215.421 144.24 215.421ZM144.24 213.512H142.95C142.821 213.512 142.716 213.408 142.716 213.279C142.716 213.15 142.821 213.045 142.95 213.045H144.24C144.369 213.045 144.473 213.15 144.473 213.279C144.473 213.408 144.369 213.512 144.24 213.512ZM144.24 211.603H142.95C142.821 211.603 142.716 211.499 142.716 211.37C142.716 211.241 142.821 211.137 142.95 211.137H144.24C144.369 211.137 144.473 211.241 144.473 211.37C144.473 211.499 144.369 211.603 144.24 211.603ZM144.24 209.694H142.95C142.821 209.694 142.716 209.59 142.716 209.461C142.716 209.332 142.821 209.228 142.95 209.228H144.24C144.369 209.228 144.473 209.332 144.473 209.461C144.473 209.59 144.369 209.694 144.24 209.694ZM144.24 207.785H142.95C142.821 207.785 142.716 207.681 142.716 207.552C142.716 207.423 142.821 207.319 142.95 207.319H144.24C144.369 207.319 144.473 207.423 144.473 207.552C144.473 207.681 144.369 207.785 144.24 207.785ZM147.873 215.421H146.582C146.453 215.421 146.349 215.317 146.349 215.188C146.349 215.059 146.453 214.954 146.582 214.954H147.873C148.002 214.954 148.106 215.059 148.106 215.188C148.106 215.317 148.002 215.421 147.873 215.421ZM147.873 213.512H146.582C146.453 213.512 146.349 213.408 146.349 213.279C146.349 213.15 146.453 213.045 146.582 213.045H147.873C148.002 213.045 148.106 213.15 148.106 213.279C148.106 213.408 148.002 213.512 147.873 213.512ZM151.505 215.421H150.215C150.086 215.421 149.981 215.317 149.981 215.188C149.981 215.059 150.086 214.954 150.215 214.954H151.505C151.634 214.954 151.738 215.059 151.738 215.188C151.738 215.317 151.634 215.421 151.505 215.421ZM151.505 213.512H150.215C150.086 213.512 149.981 213.408 149.981 213.279C149.981 213.15 150.086 213.045 150.215 213.045H151.505C151.634 213.045 151.738 213.15 151.738 213.279C151.738 213.408 151.634 213.512 151.505 213.512ZM151.505 211.603H150.215C150.086 211.603 149.981 211.499 149.981 211.37C149.981 211.241 150.086 211.137 150.215 211.137H151.505C151.634 211.137 151.738 211.241 151.738 211.37C151.738 211.499 151.634 211.603 151.505 211.603ZM151.505 209.694H150.215C150.086 209.694 149.981 209.59 149.981 209.461C149.981 209.332 150.086 209.228 150.215 209.228H151.505C151.634 209.228 151.738 209.332 151.738 209.461C151.738 209.59 151.634 209.694 151.505 209.694Z" fill="#6C6D76"/>
<path d="M224.622 58.6506H202.364V61.8006H224.622V58.6506Z" fill="white"/>
<path d="M224.622 62.0336H202.364C202.235 62.0336 202.13 61.9292 202.13 61.8002V58.6507C202.13 58.5217 202.235 58.4174 202.364 58.4174H224.622C224.751 58.4174 224.855 58.5217 224.855 58.6507V61.8002C224.855 61.9292 224.751 62.0336 224.622 62.0336ZM202.597 61.5669H224.389V58.884H202.597V61.5669Z" fill="#1A1B22"/>
<path d="M255.387 135.552L252.257 135.907L254.764 158.024L257.894 157.669L255.387 135.552Z" fill="white"/>
<path d="M254.532 158.05L252.026 135.934C252.011 135.806 252.103 135.69 252.231 135.675L255.361 135.32C255.497 135.306 255.605 135.404 255.619 135.526L258.126 157.642C258.14 157.771 258.049 157.886 257.921 157.901L254.791 158.255C254.655 158.269 254.546 158.173 254.532 158.05ZM252.516 136.113L254.97 157.765L257.636 157.463L255.182 135.81L252.516 136.113Z" fill="#1A1B22"/>
<path d="M187.352 64.7811C187.352 64.7811 193.928 61.2584 192.494 59.1732C191.593 57.8632 188.384 60.5562 188.384 60.5562C188.384 60.5562 186.304 59.5725 185.53 62.4912" fill="#FFC7C1"/>
<path d="M212.918 183.765C212.823 183.678 212.817 183.53 212.904 183.435C214.758 181.42 216.504 179.253 218.097 176.995C218.17 176.89 218.316 176.865 218.422 176.939C218.527 177.014 218.552 177.159 218.478 177.264C216.874 179.539 215.114 181.721 213.248 183.752C213.161 183.845 213.014 183.853 212.918 183.765Z" fill="#1A1B22"/>
<path d="M32.5654 152.547L66.0982 134.891L48.2254 167.6L32.5654 152.547Z" fill="#595A62"/>
<path d="M257.679 132.243C257.508 132.153 257.443 131.941 257.533 131.77L263.32 120.821C263.411 120.651 263.621 120.586 263.793 120.675C263.964 120.766 264.029 120.978 263.939 121.148L258.152 132.097C258.063 132.265 257.855 132.335 257.679 132.243ZM265.765 116.944C265.594 116.854 265.529 116.642 265.619 116.471L266.549 114.713C266.64 114.542 266.85 114.477 267.022 114.567C267.193 114.657 267.258 114.869 267.168 115.04L266.238 116.799C266.149 116.966 265.941 117.036 265.765 116.944ZM250.922 131.071L249.023 123.068C248.978 122.88 249.095 122.692 249.283 122.647C249.466 122.602 249.659 122.718 249.704 122.907L251.603 130.91C251.648 131.097 251.532 131.286 251.344 131.331C251.153 131.376 250.967 131.257 250.922 131.071ZM248.312 121.01L248.081 119.941C248.04 119.752 248.16 119.566 248.349 119.525C248.535 119.488 248.724 119.604 248.765 119.793L248.996 120.862C249.037 121.051 248.917 121.237 248.728 121.278C248.529 121.319 248.351 121.192 248.312 121.01ZM261.865 135.512C261.774 135.341 261.838 135.129 262.009 135.038L267.389 132.152C267.56 132.061 267.771 132.126 267.863 132.296C267.954 132.466 267.89 132.678 267.72 132.77L262.339 135.655C262.168 135.746 261.957 135.681 261.865 135.512ZM273.247 129.431C273.157 129.26 273.221 129.048 273.392 128.957L275.489 127.841C275.66 127.75 275.871 127.816 275.962 127.986C276.053 128.157 275.988 128.369 275.818 128.459L273.721 129.575C273.55 129.666 273.338 129.602 273.247 129.431Z" fill="#595A62"/>
<path d="M226.426 56.4218C226.255 56.3315 226.19 56.1196 226.28 55.9487L232.067 44.9998C232.157 44.8294 232.367 44.7642 232.54 44.854C232.711 44.9442 232.776 45.1561 232.686 45.327L226.899 56.2759C226.81 56.4436 226.601 56.5133 226.426 56.4218ZM234.511 41.1229C234.34 41.0327 234.275 40.8208 234.365 40.6499L235.295 38.8912C235.386 38.7208 235.596 38.6556 235.768 38.7454C235.939 38.8356 236.004 39.0475 235.914 39.2184L234.984 40.9771C234.895 41.1448 234.687 41.2145 234.511 41.1229ZM219.669 55.2496L217.769 47.2466C217.724 47.0588 217.841 46.8701 218.029 46.8255C218.212 46.7808 218.405 46.897 218.45 47.0852L220.349 55.0883C220.394 55.2761 220.278 55.4647 220.09 55.5094C219.899 55.5545 219.713 55.4355 219.669 55.2496ZM217.058 45.1885L216.827 44.1198C216.786 43.9311 216.906 43.7447 217.095 43.7037C217.281 43.6668 217.47 43.783 217.511 43.9722L217.742 45.0408C217.783 45.2295 217.663 45.4159 217.474 45.4569C217.276 45.4973 217.097 45.3708 217.058 45.1885ZM230.612 59.6902C230.52 59.5198 230.584 59.3079 230.755 59.2163L236.135 56.3315C236.307 56.2395 236.518 56.3046 236.609 56.4746C236.7 56.6451 236.636 56.857 236.466 56.9486L231.085 59.8334C230.914 59.9248 230.703 59.8598 230.612 59.6902ZM241.993 53.6099C241.903 53.4395 241.967 53.2271 242.138 53.1364L244.235 52.0199C244.406 51.9287 244.617 51.9944 244.709 52.1643C244.799 52.3348 244.735 52.5472 244.564 52.6378L242.467 53.7544C242.297 53.8447 242.084 53.7809 241.993 53.6099Z" fill="#595A62"/>
<path d="M145.79 154.325C135.215 144.188 122.218 138.073 113.177 134.728C113.056 134.684 112.995 134.55 113.039 134.428C113.084 134.308 113.218 134.246 113.339 134.291C122.421 137.651 135.48 143.795 146.113 153.987C146.206 154.077 146.209 154.224 146.12 154.317C146.029 154.412 145.882 154.412 145.79 154.325Z" fill="#1A1B22"/>
<path d="M125.69 235.623L121.432 211.416C121.365 211.036 121.619 210.672 122 210.605C122.379 210.538 122.744 210.792 122.811 211.174L127.069 235.381C127.136 235.762 126.882 236.125 126.501 236.192C126.126 236.259 125.758 236.008 125.69 235.623Z" fill="#5D5F74"/>
<path d="M34.3645 118.641C33.0123 116.829 33.3856 114.256 35.1966 112.903C37.01 111.55 39.5835 111.924 40.9356 113.734C42.2897 115.549 41.919 118.118 40.103 119.474C38.2873 120.829 35.7206 120.456 34.3645 118.641ZM35.4865 117.803C36.3821 119.002 38.0743 119.241 39.2654 118.352C40.4601 117.46 40.7067 115.768 39.8136 114.572C38.9231 113.379 37.2269 113.134 36.0342 114.025C34.8416 114.915 34.596 116.61 35.4865 117.803Z" fill="#514716"/>
<path d="M35.3671 119.592L27.1813 113.411L27.8302 115.971C27.925 116.345 27.6985 116.726 27.3235 116.821C26.9498 116.916 26.5679 116.689 26.4731 116.314L25.3347 111.823C25.173 111.185 25.9071 110.695 26.4352 111.093L36.2111 118.475C36.5196 118.708 36.5807 119.147 36.3478 119.456C36.1141 119.764 35.6751 119.825 35.3671 119.592Z" fill="#514716"/>
<path d="M256.691 81.2093C256.041 79.553 256.854 77.688 258.51 77.0371C260.162 76.39 262.034 77.2048 262.683 78.8559C263.332 80.5084 262.515 82.3805 260.863 83.0295C259.206 83.6785 257.338 82.8572 256.691 81.2093ZM259.022 78.3405C258.088 78.7067 257.627 79.762 257.995 80.6971C258.361 81.6308 259.42 82.092 260.352 81.7261C261.285 81.3597 261.747 80.3015 261.38 79.3677C261.014 78.436 259.956 77.9728 259.022 78.3405ZM242.774 86.6749C242.124 85.0198 242.937 83.1533 244.593 82.5036C246.247 81.8535 248.114 82.6658 248.766 84.3219C249.414 85.9744 248.598 87.8465 246.946 88.4955C245.293 89.1429 243.423 88.3278 242.774 86.6749ZM245.105 83.807C244.156 84.1785 243.714 85.242 244.077 86.1631C244.444 87.0964 245.502 87.5581 246.434 87.1921C247.367 86.8257 247.829 85.7675 247.462 84.8337C247.099 83.9091 246.05 83.4354 245.105 83.807Z" fill="#F7AE00"/>
<path d="M242.883 86.9861L234.532 75.2776C234.267 74.9073 234.421 74.3861 234.845 74.2193L248.8 68.7388C249.1 68.6221 249.439 68.7223 249.625 68.9839L257.977 80.6925C258.202 81.0074 258.129 81.4445 257.814 81.6687C257.5 81.8929 257.062 81.8205 256.838 81.5055L248.803 70.2417L236.192 75.1946L244.023 86.1731C244.247 86.488 244.174 86.9251 243.86 87.1493C243.543 87.3754 243.106 87.2988 242.883 86.9861Z" fill="#F7AE00"/>
<path d="M236.775 78.0775C236.634 77.7175 236.811 77.311 237.17 77.1697L250.981 71.7456C251.34 71.6048 251.747 71.7812 251.889 72.1412C252.03 72.5012 251.853 72.9077 251.493 73.049L237.683 78.4731C237.32 78.6143 236.916 78.4353 236.775 78.0775Z" fill="#F7AE00"/>
<path d="M111.253 57.0311C109.779 56.0444 109.382 54.0411 110.369 52.5659C111.356 51.0907 113.359 50.6951 114.833 51.6808C116.31 52.6692 116.709 54.6672 115.719 56.1456C114.735 57.6157 112.733 58.0207 111.253 57.0311ZM111.533 53.3442C110.975 54.1782 111.199 55.3098 112.032 55.8672C112.865 56.4259 113.998 56.2008 114.555 55.3672C115.114 54.533 114.89 53.4031 114.054 52.8448C113.222 52.2874 112.09 52.5107 111.533 53.3442ZM98.826 48.7163C97.3501 47.7299 96.9506 45.7332 97.941 44.2515C98.9301 42.773 100.926 42.3774 102.405 43.3661C103.881 44.3536 104.278 46.3565 103.292 47.8308C102.308 49.3009 100.306 49.7059 98.826 48.7163ZM99.1049 45.0299C98.5466 45.864 98.7684 46.9938 99.6044 47.5524C100.438 48.1097 101.571 47.886 102.128 47.0524C102.686 46.2194 102.46 45.0878 101.627 44.53C100.796 43.9735 99.6654 44.191 99.1049 45.0299Z" fill="#514716"/>
<path d="M110.632 53.7507C110.268 53.6199 110.078 53.2194 110.209 52.8552L114.879 39.8319L103.618 32.2973L99.0662 44.9912C98.9354 45.3553 98.5344 45.5435 98.1712 45.4141C97.807 45.2833 97.6179 44.8827 97.7482 44.519L102.603 30.9807C102.757 30.5522 103.273 30.3811 103.651 30.6348L116.112 38.9719C116.379 39.1505 116.49 39.4878 116.382 39.7899L111.527 53.3283C111.396 53.6915 110.996 53.8808 110.632 53.7507Z" fill="#514716"/>
<path d="M114.107 43.6422L101.775 35.3917C101.454 35.1766 101.368 34.7418 101.583 34.4205C101.798 34.0988 102.233 34.014 102.554 34.2278L114.885 42.4783C115.207 42.6934 115.293 43.1282 115.078 43.4494C114.862 43.7725 114.427 43.8557 114.107 43.6422Z" fill="#514716"/>
<path d="M204.502 107.269C204.502 108.249 205.296 109.044 206.276 109.044C207.257 109.044 208.051 108.249 208.051 107.269C208.051 106.289 207.257 105.495 206.276 105.495C205.296 105.495 204.502 106.289 204.502 107.269Z" fill="#595A62"/>
<path d="M187.6 75.1093C187.6 75.7997 188.16 76.3594 188.85 76.3594C189.541 76.3594 190.101 75.7997 190.101 75.1093C190.101 74.4192 189.541 73.8595 188.85 73.8595C188.16 73.8595 187.6 74.4192 187.6 75.1093Z" fill="#1A1B22"/>
<path d="M32.4832 79.549C31.946 76.9979 32.1355 74.7743 34.5071 73.7152C33.654 72.287 32.4618 71.0629 31.0222 70.2161C30.1677 69.7135 28.5097 68.9533 27.0022 69.518C26.613 69.6633 25.9549 70.0475 25.1966 70.5721C24.878 70.7922 24.4424 70.7124 24.2227 70.3948C24.0026 70.0767 24.0823 69.6405 24.4 69.4209C25.0097 68.9989 25.8715 68.4461 26.5127 68.2064C28.5644 67.4403 30.6631 68.3809 31.7322 69.0094C33.4913 70.0439 34.9264 71.5737 35.9081 73.3538C37.8841 73.1844 39.7339 74.4351 40.7479 76.167C41.3513 77.1988 41.7163 78.4193 41.8567 79.8831C49.3333 80.2843 57.6294 79.9281 65.1002 80.3748C65.4858 80.3976 65.7802 80.7293 65.7569 81.1154C65.7337 81.5004 65.4238 81.7948 65.0164 81.7721C57.401 81.3167 48.8303 81.7042 41.1612 81.2457C40.8053 81.2247 40.5223 80.939 40.5041 80.5826C40.4271 79.0646 40.1112 77.8519 39.5393 76.8743C38.7752 75.5682 37.5871 74.8555 36.5661 74.7534C37.1786 76.3106 37.4621 77.9963 37.3441 79.673C37.2347 81.2202 36.5379 82.277 35.4801 82.5003C33.7466 82.8643 32.8488 81.2798 32.4832 79.549ZM35.1447 74.9648C33.3674 75.7025 33.4615 77.4036 33.8532 79.2596C34.0232 80.0642 34.3793 81.3022 35.1912 81.1304C35.6442 81.0347 35.8976 80.28 35.9477 79.5741C36.0584 77.9977 35.765 76.4118 35.1447 74.9648Z" fill="#514716"/>
<path d="M80.2323 60.1246C80.2323 61.9154 78.7772 63.3706 76.9822 63.3706C75.1872 63.3706 73.7321 61.9154 73.7321 60.1246C73.7321 58.3297 75.1872 56.8745 76.9822 56.8745C78.7772 56.8745 80.2323 58.3297 80.2323 60.1246Z" fill="#FC5F4F"/>
<path d="M87.4214 111.652C87.4214 113.076 86.2665 114.231 84.842 114.231H69.1226C67.698 114.231 66.5432 113.076 66.5432 111.652C66.5432 110.227 67.698 109.072 69.1226 109.072H84.842C86.2665 109.072 87.4214 110.227 87.4214 111.652Z" fill="#6C6D76"/>
<path d="M257.894 224.558C257.794 224.558 257.702 224.494 257.671 224.394L247.756 192.218C247.718 192.095 247.787 191.964 247.91 191.926C248.034 191.888 248.164 191.957 248.202 192.08L258.117 224.256C258.155 224.379 258.086 224.51 257.963 224.548C257.94 224.555 257.917 224.558 257.894 224.558Z" fill="#1A1B22"/>
</g>
<defs>
<linearGradient id="paint0_linear_1_17966" x1="179.896" y1="207.248" x2="144.926" y2="101.717" gradientUnits="userSpaceOnUse">
<stop offset="0.121807" stop-color="#EFA607"/>
<stop offset="1" stop-color="#FCD93A"/>
</linearGradient>
<linearGradient id="paint1_linear_1_17966" x1="185.536" y1="226.002" x2="172.396" y2="154.652" gradientUnits="userSpaceOnUse">
<stop offset="0.121807" stop-color="#EFA607"/>
<stop offset="1" stop-color="#FCD93A"/>
</linearGradient>
<clipPath id="clip0_1_17966">
<rect width="280" height="280" fill="white"/>
</clipPath>
</defs>
</svg>
