<svg width="280" height="280" viewBox="0 0 280 280" fill="none" xmlns="http://www.w3.org/2000/svg">
<g clip-path="url(#clip0_1_17947)">
<path d="M242.004 137.417C242.004 152.634 229.67 164.968 214.456 164.968C199.243 164.968 186.909 152.634 186.909 137.417C186.909 122.203 199.243 109.869 214.456 109.869C229.67 109.869 242.004 122.203 242.004 137.417Z" fill="#6C6D76"/>
<path d="M241.29 100.65C241.29 102.368 239.897 103.761 238.179 103.761C236.461 103.761 235.068 102.368 235.068 100.65C235.068 98.9318 236.461 97.5389 238.179 97.5389C239.897 97.5389 241.29 98.9318 241.29 100.65Z" fill="#1A1B22"/>
<path d="M122.514 189.98H40.5631V243.962H122.514V189.98Z" fill="#6C6D76"/>
<path d="M117.833 238.975H35.4149V184.526H117.833V238.975ZM35.8816 238.508H117.366V184.993H35.8816V238.508Z" fill="#1A1B22"/>
<path d="M148.914 215.782L138.948 228.413L128.761 220.903L139.822 208.752L148.914 215.782Z" fill="#FFC7C1"/>
<path d="M142.724 223.303C137.903 223.344 133.645 219.799 132.152 217.317C131.932 216.951 131.447 216.857 131.114 217.125C129.434 218.472 127.213 220.677 125.409 223.069C124.35 224.474 124.739 226.489 126.226 227.43L145.522 239.645C146.873 240.501 148.672 240.168 149.596 238.863C150.918 236.998 151.039 234.903 146.789 229.16L143.331 223.628C143.201 223.42 142.97 223.301 142.724 223.303Z" fill="#595A62"/>
<path d="M178.619 121.175C178.619 121.175 207.72 123.684 207.668 150.621C207.617 176.865 147.095 223.024 147.095 223.024C145.786 224.367 132.708 211.624 134.016 210.281C146.462 191.324 166.39 165.288 175.384 157.986C175.384 157.986 153.147 133.209 156.589 118.534L178.619 121.175Z" fill="url(#paint0_linear_1_17947)"/>
<path d="M105.5 146.212L84.8538 258.702L85.3132 258.786L105.959 146.296L105.5 146.212Z" fill="#2A2B39"/>
<path d="M124.754 146.2L98.101 258.689L98.5551 258.797L125.209 146.308L124.754 146.2Z" fill="#2A2B39"/>
<path d="M154.294 146.214L153.835 146.298L174.5 258.785L174.96 258.7L154.294 146.214Z" fill="#2A2B39"/>
<path d="M135.044 146.202L134.59 146.309L161.253 258.796L161.707 258.688L135.044 146.202Z" fill="#2A2B39"/>
<path d="M136.937 150.246C159.858 150.246 178.438 147.235 178.438 143.521C178.438 139.807 159.858 136.796 136.937 136.796C114.016 136.796 95.4352 139.807 95.4352 143.521C95.4352 147.235 114.016 150.246 136.937 150.246Z" fill="#FFD7D4"/>
<path d="M173.949 237.288L171.692 253.218L159.11 251.855L162.554 235.788L173.949 237.288Z" fill="#FFC7C1"/>
<path d="M172.385 246.902C168.238 249.364 162.776 248.443 160.236 247.05C159.861 246.844 159.395 247.007 159.242 247.406C158.468 249.416 157.659 252.438 157.304 255.413C157.096 257.16 158.446 258.706 160.204 258.771L183.026 259.616C184.624 259.676 186.011 258.483 186.153 256.89C186.357 254.614 185.407 252.742 178.844 249.918L173.073 246.878C172.855 246.763 172.596 246.777 172.385 246.902Z" fill="#595A62"/>
<path d="M156.968 118.58C156.968 118.58 191.409 150.232 192.836 172.956C194.904 205.893 174.565 243.765 174.565 243.765C172.969 245.537 159.235 243.817 159.458 241.954C157.68 223.981 174.612 186.806 164.169 178.241C126.326 147.202 129.999 123.399 129.999 123.399L156.968 118.58Z" fill="url(#paint1_linear_1_17947)"/>
<path d="M192.97 180.171C192.968 180.171 192.966 180.171 192.965 180.171C192.836 180.168 192.734 180.061 192.737 179.932C192.79 177.576 192.745 175.233 192.603 172.97C191.199 150.599 157.154 119.067 156.81 118.751C156.715 118.664 156.709 118.517 156.796 118.422C156.884 118.327 157.032 118.321 157.126 118.408C157.471 118.725 191.653 150.385 193.069 172.941C193.212 175.217 193.257 177.573 193.203 179.943C193.201 180.07 193.097 180.171 192.97 180.171Z" fill="#1A1B22"/>
<path d="M226.395 66.5083C226.395 66.5083 235.788 58.4893 230.186 54.6106C223.892 50.2534 221.353 58.5275 221.353 58.5275C221.353 58.5275 220.699 55.2369 219.482 55.2761C217.575 55.3376 216.931 58.899 217.769 62.0063C218.039 64.4573 224.482 67.8234 226.395 66.5083Z" fill="#FFC7C1"/>
<path d="M129.197 125.132C129.197 125.132 107.496 90.8872 122.765 69.6371C138.033 48.387 165.078 60.0271 170.879 69.3993C179.51 83.3448 168.409 119.951 168.409 119.951L129.197 125.132Z" fill="#6C6D76"/>
<path d="M151.059 76.0231C151.059 76.0231 177.084 109.598 196.219 105.349C214.964 101.186 227.187 66.4036 227.187 66.4036C227.712 65.0674 217.694 58.71 216.47 59.7477C207.817 66.8573 199.317 77.4244 192.624 84.4159C180.2 74.5488 172.485 63.715 158.352 60.1604" fill="#6C6D76"/>
<path d="M172.473 97.4056C172.455 97.4056 172.436 97.4035 172.418 97.399C172.292 97.3687 172.216 97.2424 172.246 97.1171C173.591 91.5802 174.877 83.4972 173.367 76.4316C173.34 76.3056 173.421 76.1816 173.547 76.1547C173.671 76.1278 173.797 76.2078 173.824 76.334C175.352 83.4856 174.056 91.6434 172.7 97.2274C172.674 97.334 172.578 97.4056 172.473 97.4056ZM243.788 50.2317L223.121 29.5637C222.938 29.3814 222.938 29.0861 223.121 28.9038C223.303 28.7215 223.598 28.7215 223.781 28.9038L244.448 49.5718C244.631 49.7541 244.631 50.0494 244.448 50.2317C244.266 50.414 243.971 50.414 243.788 50.2317ZM240.115 52.8699L220.482 33.2371C220.3 33.0548 220.3 32.7595 220.482 32.5772C220.665 32.3949 220.96 32.3949 221.142 32.5772L240.775 52.21C240.957 52.3923 240.957 52.6876 240.775 52.8699C240.593 53.0522 240.298 53.0522 240.115 52.8699ZM236.491 55.5574L217.795 36.8608C217.613 36.6785 217.613 36.3832 217.795 36.2009C217.977 36.0187 218.273 36.0187 218.455 36.2009L237.151 54.8975C237.333 55.0798 237.333 55.3751 237.151 55.5574C236.969 55.7396 236.674 55.7397 236.491 55.5574ZM232.91 58.2876L215.065 40.4422C214.882 40.2599 214.882 39.9646 215.065 39.7823C215.247 39.6 215.542 39.6 215.725 39.7823L233.57 57.6277C233.752 57.81 233.752 58.1053 233.57 58.2876C233.388 58.4699 233.092 58.4699 232.91 58.2876Z" fill="#514716"/>
<path d="M242.685 46.6909L228.659 56.9758C226.973 58.2113 224.639 58.0327 223.161 56.5552L216.797 50.1907C215.32 48.7132 215.141 46.3787 216.376 44.6936L226.661 30.6668C228.196 28.5742 231.234 28.3417 233.069 30.1765L243.176 40.283C245.011 42.1179 244.778 45.1565 242.685 46.6909ZM167.649 161.673C152.253 177.068 135.272 168.881 120.038 153.22C105.389 138.162 97.2874 121.986 111.886 106.879C121.736 96.6854 135.724 93.0203 148.55 95.8819C152.763 96.8219 156.991 94.333 158.245 90.2025C159.261 86.8563 161.151 83.7191 163.913 81.1499C171.718 73.8891 179.724 79.2512 187.556 86.4828C197.996 96.1217 199.194 104.397 192.365 110.676C189.799 113.035 186.964 114.846 183.847 115.794C179.698 117.054 177.227 121.298 178.167 125.53C180.967 138.138 177.46 151.862 167.649 161.673Z" fill="#514716"/>
<path opacity="0.7" d="M159.582 130.048C152.396 131.468 145.408 126.794 143.991 119.604C142.567 112.415 147.249 105.434 154.435 104.014C161.628 102.593 168.605 107.271 170.029 114.461C171.45 121.646 166.771 128.624 159.582 130.048Z" fill="#F7AE00"/>
<path d="M233.557 47.4176L146.01 139.229C144.945 140.345 143.169 140.366 142.078 139.275L134.764 131.961C133.673 130.87 133.694 129.094 134.811 128.03L226.622 40.4826C227.702 39.4529 229.406 39.4731 230.461 40.5282L233.511 43.5783C234.566 44.6334 234.586 46.3377 233.557 47.4176Z" fill="#F7AE00"/>
<path d="M124.977 131.428L141.576 148.101C142.304 148.833 142.302 150.015 141.57 150.743L139.585 152.72C138.853 153.448 137.67 153.446 136.942 152.714L120.344 136.041C119.616 135.31 119.618 134.127 120.35 133.399L122.335 131.422C123.067 130.694 124.25 130.697 124.977 131.428Z" fill="#F7AE00"/>
<path d="M141.824 132.215C141.733 132.124 141.733 131.976 141.824 131.885L226.983 46.7258C227.075 46.6347 227.222 46.6347 227.313 46.7258C227.405 46.817 227.405 46.9646 227.313 47.0558L142.154 132.215C142.063 132.306 141.915 132.306 141.824 132.215ZM138.378 128.769C138.289 128.675 138.293 128.528 138.386 128.439L225.75 45.484C225.844 45.3958 225.992 45.399 226.08 45.4926C226.169 45.5861 226.165 45.7337 226.072 45.8226L138.708 128.778C138.612 128.868 138.464 128.861 138.378 128.769ZM145.27 135.662C145.177 135.573 145.173 135.425 145.262 135.332L228.217 47.9677C228.306 47.874 228.454 47.8709 228.547 47.959C228.64 48.0479 228.644 48.1956 228.555 48.289L145.6 135.653C145.514 135.745 145.366 135.752 145.27 135.662Z" fill="white"/>
<path d="M156.58 61.047C153.96 66.8245 143.628 62.1993 146.249 56.4219L150.916 48.1482C152.297 52.1417 155.03 55.258 158.321 56.7641L156.58 61.047Z" fill="#FFC7C1"/>
<path d="M152.672 51.7504C153.15 54.5575 154.593 57.1705 157.188 59.5512L158.321 56.764L152.672 51.7504Z" fill="#F6AE00"/>
<path d="M174.961 41.3606C173.226 49.2871 169.515 56.0762 162.83 56.9548C156.148 57.833 151.163 52.7414 150.105 44.6966C149.048 36.6542 153.611 29.4211 160.294 28.5428C166.978 27.6642 177.18 31.2209 174.961 41.3606Z" fill="#FFC7C1"/>
<path d="M176.604 37.0653C175.111 39.3925 172.675 41.5784 163.937 37.0065C155.198 32.4347 162.165 40.2178 158.62 40.6074C155.076 40.997 158.078 45.5127 156.058 46.1941C154.413 46.749 155.436 42.2469 153.175 42.3665C150.914 42.4861 151.077 48.2136 151.077 48.2136L149.545 50.5224C149.545 50.5224 136.915 26.0313 162.579 28.5096C162.579 28.5096 161.808 23.4255 169.506 23.3843C176.803 23.3454 181.379 29.6215 176.604 37.0653Z" fill="#F7AE00"/>
<path d="M155.766 47.1815C154.939 48.9797 152.814 49.7661 151.019 48.9404C149.223 48.1147 148.434 45.9887 149.261 44.1906C150.086 42.3947 152.214 41.6093 154.01 42.435C155.805 43.2606 156.592 45.3856 155.766 47.1815Z" fill="#FFC7C1"/>
<path d="M145.693 132.89C145.693 132.89 154.044 141.929 157.687 136.2C161.779 129.763 153.442 127.558 153.442 127.558C153.442 127.558 156.693 126.779 156.606 125.568C156.471 123.672 152.9 123.17 149.838 124.126C147.409 124.49 144.309 131.037 145.693 132.89Z" fill="#FFC7C1"/>
<path d="M132.937 60.6239C132.937 60.6239 101.525 78.0618 104.368 103.032C106.541 122.11 145.324 134.433 145.324 134.433C146.819 134.942 150.979 125.894 150.346 123.51C143.533 114.623 132.21 107.252 125.449 100.326C137.111 88.6569 140.646 83.1454 144.676 69.1403" fill="#6C6D76"/>
<path d="M145.249 134.654C144.912 134.547 110.987 123.593 104.966 106.606C104.923 106.485 104.987 106.352 105.108 106.308C105.229 106.265 105.363 106.329 105.406 106.45C111.35 123.221 145.056 134.103 145.395 134.211C145.515 134.251 145.738 134.139 145.987 133.906C147.729 132.281 150.591 125.603 150.132 123.614C145.985 118.217 140.258 113.454 134.719 108.846C131.222 105.938 127.919 103.19 125.282 100.489C125.193 100.397 125.194 100.251 125.284 100.161C129.95 95.4929 132.931 92.1815 135.255 89.089C135.332 88.986 135.478 88.9659 135.581 89.0425C135.684 89.12 135.705 89.2662 135.627 89.3692C133.318 92.444 130.366 95.7287 125.777 100.327C128.37 102.958 131.602 105.646 135.018 108.488C140.589 113.122 146.351 117.915 150.531 123.368C150.55 123.393 150.564 123.421 150.572 123.45C151.126 125.539 148.174 132.504 146.306 134.248C146.015 134.519 145.623 134.782 145.249 134.654Z" fill="#6C6D76"/>
<path d="M152.505 45.8866C152.422 45.8866 152.341 45.8421 152.299 45.7638L151.966 45.1435C151.905 45.0298 151.948 44.8883 152.062 44.8275C152.174 44.7662 152.316 44.8088 152.377 44.9225L152.711 45.5427C152.772 45.6564 152.729 45.7979 152.615 45.8588C152.58 45.8777 152.542 45.8866 152.505 45.8866Z" fill="#1A1B22"/>
<path d="M231.184 54.6491C232.509 56.118 230.741 56.6966 228.655 58.5786C226.565 60.4638 224.946 62.9417 223.621 61.4727C222.298 60.0065 222.92 57.29 225.009 55.4048C227.095 53.5229 229.861 53.1829 231.184 54.6491Z" fill="#FFC7C1"/>
<path d="M97.447 122.13L91.7481 111.458C91.6875 111.344 91.7303 111.203 91.8443 111.142C91.9573 111.082 92.0986 111.124 92.1601 111.238L97.859 121.911C97.9196 122.025 97.8767 122.166 97.7628 122.226C97.6482 122.287 97.5078 122.244 97.447 122.13ZM96.2739 126.736L82.0821 124.201C81.9554 124.179 81.8706 124.057 81.8934 123.93C81.9157 123.803 82.0397 123.718 82.1641 123.742L96.356 126.277C96.4827 126.299 96.5674 126.42 96.5447 126.547C96.522 126.675 96.3991 126.759 96.2739 126.736ZM86.1107 137.373C86.0355 137.269 86.0597 137.123 86.1645 137.048L96.273 129.797C96.3765 129.722 96.5228 129.745 96.5984 129.851C96.6736 129.955 96.6495 130.101 96.5447 130.176L86.4361 137.427C86.333 137.501 86.1865 137.479 86.1107 137.373Z" fill="#514716"/>
<path d="M94.5328 98.1719C95.0737 99.385 94.5226 100.807 93.3096 101.348C92.0966 101.889 90.6775 101.345 90.1366 100.132C89.5958 98.9189 90.1397 97.4998 91.3527 96.959C92.5656 96.4182 93.992 96.9589 94.5328 98.1719Z" fill="#F6AE00"/>
<path d="M52.4116 123.353C53.1308 124.966 52.398 126.857 50.7851 127.576C49.1722 128.296 47.2851 127.572 46.5659 125.959C45.8467 124.346 46.57 122.459 48.1829 121.74C49.7958 121.021 51.6925 121.74 52.4116 123.353ZM72.6891 115.714L64.8223 114.78C64.475 114.739 64.2111 114.448 64.2047 114.098L64.0726 106.948L56.4569 105.888C56.0864 105.837 55.8216 105.503 55.8567 105.13L56.5649 97.5352L48.8011 96.819C48.416 96.7835 48.133 96.4426 48.1681 96.0577C48.2036 95.6729 48.5427 95.3874 48.9296 95.425L57.3911 96.2056C57.7762 96.2412 58.0598 96.5825 58.0237 96.9676L57.3127 104.594L64.8583 105.644C65.1991 105.691 65.4553 105.98 65.4616 106.324L65.5933 113.462L72.854 114.323C73.2377 114.369 73.5121 114.717 73.4665 115.101C73.4221 115.478 73.0819 115.758 72.6891 115.714Z" fill="#6C6D76"/>
<path d="M73.5358 132.431L69.7896 137.83C69.7396 137.906 69.6575 137.945 69.5687 137.939L69.549 137.937C69.4559 137.921 69.3811 137.856 69.3528 137.765L66.7443 129.514C66.716 129.423 66.743 129.321 66.8169 129.257C66.8909 129.192 66.9913 129.175 67.0826 129.216L73.4328 132.062C73.5001 132.091 73.5506 132.149 73.5704 132.22C73.5902 132.291 73.5797 132.37 73.5358 132.431Z" fill="#F6AE00"/>
<path d="M86.8458 115.856C86.2182 115.265 86.4338 114.543 86.591 114.015C86.8298 113.213 86.8147 112.806 85.4435 113.034C83.6389 113.333 82.7391 112.574 83.2496 110.866C83.489 110.066 83.4745 109.659 82.1053 109.888C80.3022 110.191 79.4028 109.43 79.9132 107.723C80.075 107.182 80.0946 106.999 79.9146 106.829C79.7268 106.653 79.7182 106.357 79.895 106.17C80.0714 105.982 80.3667 105.974 80.5544 106.15C81.1811 106.741 80.9651 107.463 80.8074 107.99C80.5679 108.791 80.5824 109.196 81.9517 108.968C83.7287 108.672 84.6611 109.404 84.1438 111.134C83.9048 111.935 83.9196 112.341 85.2904 112.113C87.0992 111.814 87.9938 112.576 87.4856 114.281C87.3238 114.823 87.3047 115.006 87.4856 115.177C87.6734 115.354 87.6821 115.649 87.5052 115.836C87.3289 116.024 87.0338 116.033 86.8458 115.856Z" fill="#6C6D76"/>
<path d="M93.7332 178.996H55.8717C55.4852 178.996 55.1717 178.682 55.1717 178.296C55.1717 177.909 55.4852 177.596 55.8717 177.596H93.7332C94.1197 177.596 94.4332 177.909 94.4332 178.296C94.4332 178.682 94.1197 178.996 93.7332 178.996Z" fill="#F6AE00"/>
<path d="M192.815 69.4568C192.726 69.3636 192.729 69.216 192.823 69.1271L211.523 51.3072C211.616 51.2183 211.763 51.2215 211.853 51.3152C211.942 51.4084 211.938 51.556 211.845 51.6449L193.145 69.4648C193.051 69.5539 192.904 69.5502 192.815 69.4568Z" fill="#514716"/>
<path d="M110.817 76.5715C110.712 76.4959 110.69 76.35 110.765 76.2457C122.846 59.6186 138.628 55.7458 138.787 55.7087C138.915 55.6793 139.038 55.7575 139.067 55.8823C139.097 56.0079 139.019 56.1334 138.893 56.1631C138.737 56.2 123.117 60.04 111.143 76.52C111.067 76.624 110.921 76.6475 110.817 76.5715Z" fill="#514715"/>
<path d="M128.014 34.9921C126.199 34.4689 125.149 32.5663 125.671 30.7504C126.194 28.9359 128.097 27.8841 129.912 28.4071C131.728 28.9305 132.779 30.8331 132.256 32.6481C131.732 34.4661 129.836 35.5163 128.014 34.9921ZM127.017 31.1378C126.707 32.212 127.329 33.3376 128.402 33.6468C129.477 33.9572 130.601 33.3364 130.911 32.2605C131.22 31.187 130.598 30.062 129.524 29.7524C128.448 29.4418 127.326 30.0646 127.017 31.1378Z" fill="#F7AE00"/>
<path d="M126.244 32.5893C125.858 32.5893 125.545 32.2769 125.544 31.8906L125.528 24.0605L124.453 25.4065C124.212 25.7087 123.772 25.7583 123.47 25.517C123.167 25.2759 123.118 24.8355 123.359 24.5333L125.677 21.6299C126.087 21.1156 126.923 21.4041 126.924 22.0651L126.944 31.8879C126.945 32.2743 126.631 32.5886 126.245 32.5893H126.244Z" fill="#F7AE00"/>
<path d="M133.596 45.1517C133.544 45.0496 128.151 34.9279 105.903 35.3011C105.668 35.305 105.435 35.3068 105.204 35.3068C89.3441 35.3068 83.6789 26.4217 81.7074 21.0712C81.6628 20.9502 81.7248 20.8162 81.8455 20.7716C81.9654 20.7276 82.1007 20.7887 82.1449 20.9099C84.1023 26.2221 89.8012 35.0942 105.896 34.8345C128.452 34.4694 133.96 44.8366 134.013 44.9414C134.071 45.0565 134.025 45.1964 133.91 45.2545C133.797 45.3119 133.655 45.2679 133.596 45.1517Z" fill="#514716"/>
<path d="M120.014 31.6678C116.699 31.0856 113.016 30.8203 109.058 30.8866C108.827 30.8903 108.595 30.8921 108.368 30.8921C95.9814 30.8921 89.8532 25.3981 86.8841 20.7396C86.8148 20.6309 86.8467 20.4867 86.9556 20.4174C87.0636 20.3495 87.2086 20.3798 87.2778 20.489C90.2373 25.1322 96.4002 30.6282 109.05 30.42C113.031 30.3562 116.751 30.6207 120.095 31.2079C120.222 31.2303 120.307 31.3513 120.284 31.4782C120.263 31.6015 120.146 31.6898 120.014 31.6678ZM129.988 50.2494C129.937 50.1492 124.734 40.3897 103.448 40.3897C103.068 40.3897 102.685 40.3927 102.295 40.3991C93.7875 40.5369 87.1571 38.1817 82.5866 33.3988C82.4972 33.3059 82.5009 33.158 82.5939 33.0691C82.6868 32.9798 82.8354 32.9837 82.9238 33.0764C87.4013 37.7613 93.9228 40.0755 102.288 39.9324C124.858 39.5628 130.352 49.9343 130.405 50.0391C130.463 50.1542 130.417 50.2941 130.302 50.3522C130.189 50.4096 130.047 50.3656 129.988 50.2494Z" fill="#514716"/>
<path d="M73.6046 31.5081C73.569 31.5081 73.5344 31.5076 73.4988 31.5067C71.2389 31.4491 69.4474 29.5639 69.5048 27.3047C69.5627 25.044 71.4608 23.2469 73.7071 23.3091C75.9675 23.3667 77.7599 25.2525 77.7029 27.5129C77.646 29.7371 75.8176 31.5081 73.6046 31.5081ZM73.5344 30.1072C75.0078 30.1525 76.2651 28.9653 76.3034 27.4774C76.3408 25.9887 75.1604 24.7467 73.6716 24.7086C72.1667 24.6601 70.9426 25.8516 70.9048 27.3402C70.8665 28.8279 72.0464 30.0691 73.5344 30.1072Z" fill="#F6AE00"/>
<path d="M66.7901 36.2691L62.5573 34.3865C61.9547 34.1186 62.0254 33.2381 62.6635 33.0699L74.5106 29.9536C74.8843 29.8552 75.2676 30.0787 75.3656 30.4527C75.464 30.8264 75.2407 31.2092 74.867 31.3076L64.9467 33.9171L67.3588 34.9899C67.712 35.1471 67.8711 35.5607 67.7139 35.9139C67.5583 36.2644 67.1467 36.4273 66.7901 36.2691Z" fill="#F6AE00"/>
<path d="M101.796 55.3012C101.896 56.2789 102.773 56.9889 103.751 56.8895C104.728 56.7901 105.439 55.9186 105.339 54.9409C105.24 53.9634 104.369 53.2528 103.391 53.3522C102.413 53.4516 101.697 54.3236 101.796 55.3012Z" fill="#FFB448"/>
<path d="M219.504 180.454C219.504 181.853 218.37 182.986 216.972 182.986C215.573 182.986 214.439 181.853 214.439 180.454C214.439 179.055 215.573 177.921 216.972 177.921C218.37 177.921 219.504 179.055 219.504 180.454Z" fill="#F6AE00"/>
</g>
<defs>
<linearGradient id="paint0_linear_1_17947" x1="207.668" y1="223.123" x2="125.853" y2="125.284" gradientUnits="userSpaceOnUse">
<stop offset="0.121807" stop-color="#EFA607"/>
<stop offset="1" stop-color="#FCD93A"/>
</linearGradient>
<linearGradient id="paint1_linear_1_17947" x1="192.984" y1="244.508" x2="94.2105" y2="160.588" gradientUnits="userSpaceOnUse">
<stop offset="0.121807" stop-color="#EFA607"/>
<stop offset="1" stop-color="#FCD93A"/>
</linearGradient>
<clipPath id="clip0_1_17947">
<rect width="280" height="280" fill="white"/>
</clipPath>
</defs>
</svg>
