<svg width="241" height="220" viewBox="0 0 241 220" fill="none" xmlns="http://www.w3.org/2000/svg">
<g clip-path="url(#clip0_401_160)">
<path fill-rule="evenodd" clip-rule="evenodd" d="M164.769 82.9292C164.769 78.7675 161.39 75.3887 157.228 75.3887H43.6108C39.4491 75.3887 36.0703 78.7675 36.0703 82.9292V98.0103C36.0703 102.172 39.4491 105.551 43.6108 105.551H157.228C161.39 105.551 164.769 102.172 164.769 98.0103V82.9292Z" fill="#514716"/>
<path fill-rule="evenodd" clip-rule="evenodd" d="M151.269 75.4372L132.768 75.3027L132.758 105.591C132.758 105.591 136.945 105.599 137.166 105.599H157.182C161.343 105.599 164.722 102.221 164.722 98.0588V82.9778C164.722 78.816 161.343 75.4372 157.182 75.4372H151.269Z" fill="#ECF3FF"/>
<path fill-rule="evenodd" clip-rule="evenodd" d="M144.065 54.8185C142.108 52.828 140.408 52.4701 138.996 53.4297C138.984 53.438 138.972 53.4469 138.961 53.4565C138.573 53.7881 138.377 54.1636 138.318 54.5448C138.234 55.0962 138.447 55.6773 138.874 56.1813C139.85 57.3335 141.944 58.0508 143.392 57.0741C143.809 56.7929 144.497 55.735 145.225 54.3699C146.461 52.0497 147.887 48.8388 148.477 47.4869C150.453 50.0711 151.849 50.4973 153.473 50.6789C153.579 50.6907 153.685 50.6602 153.767 50.594C153.85 50.5278 153.904 50.4313 153.915 50.3259C153.927 50.2205 153.897 50.1147 153.83 50.0318C153.764 49.9489 153.668 49.8957 153.562 49.8839C151.998 49.7089 150.696 49.242 148.711 46.4574C148.67 46.3995 148.614 46.3537 148.549 46.3246C148.485 46.2955 148.413 46.2842 148.343 46.2919C148.272 46.2995 148.205 46.3259 148.148 46.3682C148.09 46.4105 148.046 46.4673 148.018 46.5326C148.018 46.5326 146.111 51.0074 144.519 53.9937C144.364 54.2849 144.212 54.5617 144.065 54.8185ZM143.638 55.5285C142.003 53.803 140.641 53.2949 139.464 54.0792C139.257 54.2606 139.141 54.4581 139.109 54.6657C139.057 55.0061 139.22 55.3532 139.484 55.6642C140.234 56.5498 141.831 57.1616 142.944 56.4109C143.075 56.3227 143.229 56.1287 143.413 55.8671C143.49 55.7559 143.566 55.643 143.638 55.5285ZM113.253 39.6996C113.253 39.6996 113.464 48.0905 113.419 53.121C112.752 52.8942 112.342 52.9037 111.638 52.9427C110.88 52.9847 110.171 53.2265 109.627 53.7337C109.06 54.262 108.656 55.0899 108.619 56.3467C108.539 59.1169 110.774 60.4732 112.547 60.3966C113.47 60.3567 114.181 59.9117 114.416 59.1373C114.641 58.3959 115.022 56.5389 114.948 54.2583C114.81 50.0027 115.116 45.979 114.949 44.1615L124.893 40.039L124.797 51.7977C124.168 51.4321 123.485 51.2594 122.87 51.2228C122.125 51.1783 121.49 51.3554 121.123 51.5711C120.314 52.0483 119.544 53.2458 119.709 54.6983C119.848 55.9277 120.394 56.9731 121.874 57.5406L122.176 57.6237C123.236 57.8325 123.786 57.4457 124.423 56.887C125.249 56.1631 125.868 55.0181 126.076 53.2517C126.081 53.2111 126.082 53.17 126.078 53.1293C126.078 53.1293 126.84 33.8637 126.721 33.7668C126.601 33.6699 113.253 39.6996 113.253 39.6996ZM113.466 54.3677C112.842 54.0944 112.414 54.049 111.702 54.0885C111.217 54.1153 110.757 54.2492 110.41 54.5729C110.021 54.9348 109.791 55.5193 109.766 56.38C109.717 58.0933 110.749 58.9781 111.943 59.2057C112.305 59.2747 112.652 59.2721 112.928 59.1719C113.113 59.105 113.261 58.9905 113.318 58.8043C113.522 58.1301 113.531 56.4294 113.466 54.3677ZM124.56 53.5714C123.964 52.9009 123.493 52.4096 122.802 52.3684C122.353 52.3416 121.958 52.3996 121.742 52.5376C121.322 52.8069 120.725 53.6196 120.847 54.5495C120.93 55.1849 121.765 56.2493 122.469 56.2896C123.794 56.3651 124.272 55.579 124.56 53.5714Z" fill="#9E9E9E"/>
<path d="M51.0753 101.132C56.3323 101.132 60.5939 96.4672 60.5939 90.7126C60.5939 84.958 56.3323 80.293 51.0753 80.293C45.8183 80.293 41.5566 84.958 41.5566 90.7126C41.5566 96.4672 45.8183 101.132 51.0753 101.132Z" fill="#F7AE00"/>
<path fill-rule="evenodd" clip-rule="evenodd" d="M57.3342 90.5524L48.6602 85.4883V97.271L57.3342 90.5524Z" fill="#5D5F74"/>
<path fill-rule="evenodd" clip-rule="evenodd" d="M122.123 87.0898H67.2695C64.8602 89.295 65.483 91.0866 67.2695 92.7194H122.123C126.482 91.6302 125.457 87.5284 122.123 87.0898Z" fill="#F7AE00"/>
<path fill-rule="evenodd" clip-rule="evenodd" d="M145.546 86.597C147.063 83.7946 150.098 83.7946 151.616 85.1958C153.133 86.597 153.133 89.3994 151.616 92.2018C150.554 94.3035 147.822 96.4054 145.546 97.8066C143.27 96.4054 140.538 94.3035 139.476 92.2018C137.959 89.3994 137.959 86.597 139.476 85.1958C140.993 83.7946 144.028 83.7946 145.546 86.597Z" fill="#F7AE00"/>
<path d="M93.2418 95.35C95.9857 95.35 98.2101 93.1095 98.2101 90.3459C98.2101 87.5822 95.9857 85.3418 93.2418 85.3418C90.4978 85.3418 88.2734 87.5822 88.2734 90.3459C88.2734 93.1095 90.4978 95.35 93.2418 95.35Z" fill="#5D5F74"/>
<path d="M31.9909 190.409C34.6674 190.409 36.8372 188.265 36.8372 185.62C36.8372 182.976 34.6674 180.832 31.9909 180.832C29.3143 180.832 27.1445 182.976 27.1445 185.62C27.1445 188.265 29.3143 190.409 31.9909 190.409Z" fill="#96BAFD"/>
<path fill-rule="evenodd" clip-rule="evenodd" d="M122.34 157.514C120.551 164.233 118.048 167.164 112.957 169.656C112.957 169.656 131.634 190.733 137.172 192.548C145.04 195.128 157.131 193.609 148.737 175.984C146.03 170.299 125.163 158.921 122.34 157.514Z" fill="#BC775C"/>
<path fill-rule="evenodd" clip-rule="evenodd" d="M157.831 167.096C153.71 162.021 142.97 156.923 139.984 159.385C141.516 165.088 152.231 171.185 157.831 167.096Z" fill="#2D3351"/>
<path fill-rule="evenodd" clip-rule="evenodd" d="M123.807 163.807C123.232 158.151 120.61 149.045 111.585 132.872C110.539 131.59 106.952 129.363 105.169 128.333C101.971 126.486 98.4022 125.334 97.3865 125.919C95.8962 126.778 95.4301 131.304 99.9417 134.288C101.948 135.615 102.885 138.328 104.493 140.006C102.839 138.955 99.3629 139.795 98.9441 143.229C96.7261 143.075 94.4262 144.859 94.6447 147.752C91.309 149.254 95.4041 164.067 101.5 160.32C105.972 170.135 114.208 170.373 117.69 170.574C119.402 170.673 123.982 165.53 123.807 163.807ZM138.619 185.246C140.19 194.693 146.368 194.829 149.852 190.702C152.833 187.169 158.194 168.41 158.395 164.166C158.681 158.136 155.266 148.982 144.511 158.3C141.156 161.208 138.084 179.511 138.559 184.757C138.575 184.936 138.595 185.099 138.619 185.246Z" fill="#BC775C"/>
<path fill-rule="evenodd" clip-rule="evenodd" d="M150.954 132.03C154.245 128.304 161.341 121.338 164.464 126.956C167.587 132.573 158.049 167.021 158.049 167.021C147.983 160.32 145.09 158.384 139.93 159.365C139.93 159.365 143.963 139.945 150.954 132.03Z" fill="#5D5F74"/>
<path fill-rule="evenodd" clip-rule="evenodd" d="M205.798 123.538C191.383 114.805 171.227 119.306 161.659 124.608C151.922 139.103 150.536 169.909 144.67 206.139L204.329 205.355L205.798 123.538V123.538Z" fill="#F7AE00"/>
<path fill-rule="evenodd" clip-rule="evenodd" d="M185.787 144.822L175.696 144.682C171.57 163.896 182.461 160.973 185.787 144.822Z" fill="#5D5F74"/>
<path fill-rule="evenodd" clip-rule="evenodd" d="M215.189 154.794C211.736 148.394 201.841 147.043 197.942 153.571C194.044 160.098 190.486 188.33 193.43 194.979C200.308 210.516 213.159 206.462 216.82 194.214C218.903 187.247 218.641 161.194 215.189 154.794Z" fill="#BC775C"/>
<path fill-rule="evenodd" clip-rule="evenodd" d="M205.57 174.674C189.259 178.739 166.473 198.313 165.777 205.969C165.777 205.969 205.174 208.011 209.813 204.547C221.65 195.709 219.529 171.194 205.57 174.674Z" fill="#BC775C"/>
<path fill-rule="evenodd" clip-rule="evenodd" d="M215.999 130.154C201.046 112.766 195.392 133.18 194.492 139.92C192.949 151.476 192.332 165.533 192.332 165.533C201.535 160.07 213.746 161.549 221.829 164.302C221.829 164.302 221.867 136.976 215.999 130.154Z" fill="#5D5F74"/>
<path fill-rule="evenodd" clip-rule="evenodd" d="M186.186 94.1465C186.186 94.1465 171.194 101.5 169.27 107.461C167.693 112.344 168.439 125.095 168.439 125.095C159.317 136.74 172.583 139.488 192.74 119.176L186.186 94.1465Z" fill="#BC775C"/>
<path fill-rule="evenodd" clip-rule="evenodd" d="M182.423 97.9375L168.803 109.74C168.54 112.24 168.375 114.764 168.323 117.308C168.269 119.869 176.531 102.627 182.423 97.9375Z" fill="#93523E"/>
<path fill-rule="evenodd" clip-rule="evenodd" d="M187.662 100.44C194.84 95.2014 203.308 84.4508 196.865 79.2986C199.175 76.4023 193.302 64.9861 184.46 62.404L184.012 64.0637C184.012 64.0637 180.95 63.0526 178.392 61.3101C176.276 59.8693 174.7 57.6352 173.745 57.6665C171.636 57.7355 171.358 64.478 171.358 64.478L159.766 60.2897C156.89 69.3101 158.267 74.381 164.037 75.3732L187.662 100.44Z" fill="#F7AE00"/>
<path fill-rule="evenodd" clip-rule="evenodd" d="M169.996 70.7333C172.625 69.8986 181.448 70.6104 183.162 74.0746C185.059 77.9085 180.637 80.2508 180.637 85.4657C180.637 87.0245 186.378 82.6275 189.268 82.6914C194.457 82.8063 193.709 89.9073 191.531 93.3577C188.536 98.1026 184.842 95.5482 184.842 95.5482C184.842 95.5482 179.148 107.996 170.361 109.49C161.548 110.988 155.772 107.041 155.966 93.9221C156.112 83.9962 164.509 72.475 169.996 70.7333Z" fill="#BC775C"/>
<path fill-rule="evenodd" clip-rule="evenodd" d="M186.533 96.8242C184.04 96.9607 181.584 94.6393 181.332 92.9223C180.883 89.8559 183.079 87.6901 185.661 87.3552C188.243 87.0203 190.62 89.3086 190.96 91.1083C191.456 93.7339 191.28 101.538 190.975 101.418C190.944 104.039 188 104.516 187.234 102.383C186.876 101.383 186.533 96.8242 186.533 96.8242Z" fill="#5D5F74"/>
<path fill-rule="evenodd" clip-rule="evenodd" d="M122.469 157.424C121.549 160.641 120.463 163.384 118.789 165.381C116.798 167.758 114.454 169.318 111.99 171.117L117.148 176.142C123.583 174.119 128.657 170.25 130.016 161.345L122.469 157.424Z" fill="#5D5F74"/>
<path fill-rule="evenodd" clip-rule="evenodd" d="M94.2685 159.269C74.8193 157.477 66.9761 147.756 59.7946 138.349C52.5129 128.811 45.8954 119.603 28.8797 119.026C28.7949 119.023 28.7124 119.054 28.6504 119.112C28.5884 119.17 28.5519 119.25 28.549 119.335C28.5461 119.419 28.5771 119.502 28.635 119.564C28.6929 119.626 28.7731 119.662 28.858 119.665C45.6189 120.234 52.1133 129.343 59.286 138.738C66.5589 148.264 74.5127 158.091 94.2098 159.906C94.2519 159.911 94.2943 159.907 94.3347 159.894C94.3751 159.882 94.4127 159.862 94.4453 159.835C94.4779 159.808 94.5048 159.775 94.5246 159.738C94.5443 159.7 94.5565 159.659 94.5604 159.617C94.5643 159.575 94.5598 159.533 94.5472 159.493C94.5346 159.452 94.5141 159.415 94.487 159.382C94.4599 159.35 94.4266 159.323 94.3891 159.304C94.3516 159.285 94.3106 159.273 94.2685 159.269Z" fill="#6198FF"/>
<path fill-rule="evenodd" clip-rule="evenodd" d="M104.373 140.303C105.173 140.624 105.689 141.254 106.066 142.031C106.469 142.862 106.712 143.858 106.939 144.859C107.223 146.115 107.483 147.378 107.961 148.364C108.304 149.071 108.758 149.64 109.393 149.989C109.467 150.03 109.555 150.039 109.636 150.016C109.718 149.992 109.786 149.937 109.827 149.863C109.868 149.788 109.878 149.701 109.854 149.619C109.831 149.538 109.776 149.469 109.701 149.428C109.043 149.066 108.637 148.403 108.331 147.605C108 146.744 107.792 145.728 107.563 144.717C107.325 143.667 107.064 142.623 106.642 141.752C106.193 140.826 105.563 140.091 104.611 139.709C104.572 139.693 104.53 139.685 104.488 139.686C104.446 139.686 104.405 139.695 104.366 139.711C104.327 139.728 104.292 139.752 104.262 139.782C104.233 139.812 104.21 139.847 104.194 139.886C104.178 139.926 104.171 139.967 104.171 140.009C104.172 140.052 104.18 140.093 104.197 140.132C104.214 140.171 104.238 140.206 104.268 140.235C104.298 140.264 104.334 140.287 104.373 140.303ZM98.6754 143.265C98.7638 144.482 98.7345 146.124 99.0451 147.663C99.3715 149.279 100.072 150.778 101.603 151.621C101.64 151.641 101.68 151.654 101.722 151.658C101.763 151.663 101.806 151.659 101.846 151.648C101.886 151.636 101.924 151.616 101.957 151.59C101.99 151.564 102.017 151.531 102.037 151.495C102.058 151.458 102.07 151.417 102.075 151.376C102.08 151.334 102.076 151.292 102.064 151.251C102.053 151.211 102.033 151.173 102.007 151.14C101.981 151.108 101.948 151.08 101.911 151.06C100.555 150.314 99.9616 148.968 99.6724 147.536C99.3675 146.025 99.4005 144.413 99.3137 143.219C99.3076 143.134 99.2681 143.056 99.2038 143C99.1396 142.945 99.056 142.917 98.9714 142.923C98.8867 142.929 98.808 142.969 98.7525 143.033C98.697 143.097 98.6693 143.181 98.6754 143.265ZM94.5298 147.963C94.4275 150.748 95.5662 154.224 97.2588 156.365C98.4485 157.87 99.9167 158.71 101.411 158.328C101.452 158.318 101.491 158.3 101.525 158.275C101.559 158.25 101.587 158.218 101.609 158.182C101.63 158.146 101.645 158.106 101.651 158.064C101.657 158.022 101.655 157.98 101.644 157.939C101.634 157.898 101.615 157.86 101.59 157.826C101.565 157.792 101.533 157.764 101.497 157.742C101.46 157.721 101.42 157.707 101.378 157.701C101.337 157.695 101.294 157.698 101.253 157.708C99.9836 158.032 98.7714 157.247 97.7608 155.968C96.153 153.935 95.0722 150.632 95.1693 147.986C95.1714 147.944 95.1651 147.902 95.1507 147.862C95.1363 147.822 95.1141 147.786 95.0855 147.754C95.0569 147.723 95.0223 147.698 94.9838 147.68C94.9454 147.662 94.9038 147.652 94.8614 147.651C94.8191 147.649 94.7769 147.656 94.7372 147.671C94.6976 147.686 94.6613 147.709 94.6304 147.738C94.5996 147.767 94.5748 147.802 94.5575 147.84C94.5402 147.879 94.5308 147.921 94.5298 147.963Z" fill="black"/>
<path fill-rule="evenodd" clip-rule="evenodd" d="M109.709 162.673C108.169 161.39 107.282 159.857 107.484 157.904C107.49 157.853 107.483 157.802 107.464 157.754C107.445 157.707 107.416 157.664 107.377 157.63C107.339 157.597 107.293 157.573 107.244 157.56C107.194 157.548 107.142 157.548 107.093 157.559C106.054 157.804 104.934 157.549 103.993 157.091C103.057 156.636 102.293 155.98 101.976 155.383C101.663 154.793 101.622 153.872 101.794 152.998C101.965 152.134 102.344 151.307 102.934 150.909C103.176 150.747 103.511 150.774 103.896 150.826C104.633 150.924 105.526 151.158 106.418 151.047C107.177 150.952 108.73 150.417 109.83 150.16C110.233 150.066 110.564 149.999 110.741 150.042C112.977 150.579 116.575 153.702 116.575 153.702C116.607 153.73 116.643 153.751 116.683 153.764C116.723 153.777 116.765 153.783 116.807 153.779C116.849 153.776 116.89 153.765 116.928 153.746C116.965 153.727 116.999 153.701 117.026 153.669C117.054 153.638 117.074 153.601 117.088 153.561C117.101 153.521 117.106 153.479 117.103 153.437C117.1 153.395 117.089 153.354 117.07 153.317C117.051 153.279 117.025 153.246 116.993 153.218C116.993 153.218 113.225 149.98 110.891 149.42C110.656 149.363 110.216 149.412 109.685 149.537C108.605 149.789 107.084 150.319 106.339 150.412C105.504 150.516 104.67 150.283 103.981 150.192C103.415 150.116 102.932 150.14 102.577 150.379C101.866 150.858 101.372 151.833 101.166 152.874C100.963 153.904 101.041 154.988 101.41 155.683C101.775 156.37 102.637 157.144 103.713 157.667C104.657 158.126 105.761 158.392 106.819 158.258C106.751 160.237 107.695 161.828 109.299 163.165C109.332 163.191 109.369 163.212 109.409 163.224C109.449 163.237 109.491 163.241 109.533 163.237C109.575 163.234 109.616 163.222 109.653 163.202C109.69 163.182 109.723 163.156 109.75 163.124C109.777 163.091 109.797 163.054 109.81 163.014C109.822 162.974 109.827 162.932 109.823 162.89C109.819 162.848 109.807 162.807 109.787 162.77C109.768 162.733 109.741 162.7 109.709 162.673Z" fill="black"/>
<path fill-rule="evenodd" clip-rule="evenodd" d="M27.7814 121.32C25.1738 120.325 23.4788 120.707 22.5945 122.168C22.5869 122.18 22.58 122.193 22.5738 122.207C22.359 122.67 22.3366 123.093 22.4424 123.464C22.5952 124 23.0305 124.44 23.6286 124.72C24.9957 125.362 27.1981 125.142 28.1081 123.651C28.3702 123.222 28.5562 121.973 28.6494 120.429C28.7967 117.989 28.7722 114.781 28.7465 113.157C30.1468 114.566 31.1081 115.073 31.8737 115.185C32.7791 115.316 33.4458 114.898 34.2964 114.618L34.0463 113.858C33.6509 113.989 33.2998 114.157 32.9423 114.278C32.6438 114.378 32.3403 114.444 31.9887 114.393C31.1995 114.278 30.2198 113.629 28.6228 111.862C28.568 111.802 28.4959 111.759 28.4163 111.741C28.3367 111.722 28.2534 111.729 28.1775 111.759C28.1016 111.789 28.0369 111.842 27.992 111.911C27.9471 111.979 27.9241 112.059 27.9262 112.141C27.9262 112.141 28.0548 117.004 27.8509 120.381C27.8324 120.695 27.8092 121.008 27.7814 121.32ZM27.6892 122.143C25.4841 121.255 24.0336 121.36 23.2903 122.563C23.1781 122.814 23.1542 123.042 23.2118 123.244C23.3061 123.575 23.5992 123.823 23.9683 123.996C25.0191 124.489 26.7258 124.381 27.4253 123.235C27.5074 123.1 27.5668 122.859 27.6248 122.545C27.6478 122.421 27.6692 122.287 27.6892 122.143Z" fill="#8CCFFF"/>
<path fill-rule="evenodd" clip-rule="evenodd" d="M47.0432 206.068L206.702 206.186L206.702 205.052L47.1137 204.936C42.4041 204.542 38.7205 203.131 36.093 200.655C33.4669 198.179 31.9075 194.645 31.4002 190.051L30.2734 190.175C30.815 195.079 32.5122 198.837 35.3154 201.479C38.1132 204.117 42.0241 205.651 47.043 206.068H47.0432Z" fill="#465393"/>
</g>
<defs>
<clipPath id="clip0_401_160">
<rect width="240" height="220" fill="white" transform="translate(0.5)"/>
</clipPath>
</defs>
</svg>
