<svg width="28" height="28" viewBox="0 0 28 28" fill="none" xmlns="http://www.w3.org/2000/svg">
<path d="M19.837 0.666626H8.66366C3.81033 0.666626 0.916992 3.55996 0.916992 8.41329V19.5733C0.916992 24.44 3.81033 27.3333 8.66366 27.3333H19.8237C24.677 27.3333 27.5703 24.44 27.5703 19.5866V8.41329C27.5837 3.55996 24.6903 0.666626 19.837 0.666626ZM19.5837 15H15.2503V19.3333C15.2503 19.88 14.797 20.3333 14.2503 20.3333C13.7037 20.3333 13.2503 19.88 13.2503 19.3333V15H8.91699C8.37033 15 7.91699 14.5466 7.91699 14C7.91699 13.4533 8.37033 13 8.91699 13H13.2503V8.66663C13.2503 8.11996 13.7037 7.66663 14.2503 7.66663C14.797 7.66663 15.2503 8.11996 15.2503 8.66663V13H19.5837C20.1303 13 20.5837 13.4533 20.5837 14C20.5837 14.5466 20.1303 15 19.5837 15Z" fill="#F7AE00"/>
</svg>
