<svg width="24" height="24" viewBox="0 0 24 24" fill="none" xmlns="http://www.w3.org/2000/svg">
<path d="M21.7732 18.7033C21.407 19.5418 20.9734 20.3136 20.4711 21.0232C19.7864 21.9906 19.2258 22.6602 18.7938 23.032C18.1241 23.6424 17.4065 23.955 16.6381 23.9728C16.0865 23.9728 15.4212 23.8172 14.6468 23.5017C13.8699 23.1876 13.1559 23.032 12.5031 23.032C11.8184 23.032 11.0841 23.1876 10.2986 23.5017C9.512 23.8172 8.87829 23.9816 8.39378 23.9979C7.65692 24.0291 6.92246 23.7076 6.18934 23.032C5.72142 22.6276 5.13615 21.9343 4.43502 20.9521C3.68277 19.9033 3.06431 18.687 2.5798 17.3004C2.0609 15.8026 1.80078 14.3523 1.80078 12.9482C1.80078 11.3398 2.1515 9.95259 2.85397 8.79011C3.40605 7.85636 4.14052 7.11979 5.05976 6.57906C5.979 6.03834 6.97224 5.76279 8.04187 5.74516C8.62714 5.74516 9.39465 5.92456 10.3484 6.27715C11.2995 6.63091 11.9102 6.81032 12.1779 6.81032C12.3781 6.81032 13.0565 6.60054 14.2066 6.18233C15.2941 5.79449 16.212 5.63391 16.964 5.69716C19.0016 5.86012 20.5324 6.6561 21.5505 8.09013C19.7281 9.18432 18.8267 10.7169 18.8446 12.6829C18.8611 14.2142 19.4217 15.4886 20.5235 16.5004C21.0228 16.97 21.5804 17.333 22.2008 17.5907C22.0662 17.9774 21.9242 18.3477 21.7732 18.7033ZM17.1 0.480137C17.1 1.68041 16.6575 2.8011 15.7755 3.8384C14.7111 5.07155 13.4237 5.78412 12.0275 5.67168C12.0098 5.52769 11.9994 5.37614 11.9994 5.21688C11.9994 4.06462 12.5056 2.83147 13.4045 1.82321C13.8533 1.3127 14.4241 0.888228 15.1162 0.549615C15.8069 0.216055 16.4602 0.031589 17.0746 0C17.0926 0.160458 17.1 0.320926 17.1 0.480121V0.480137Z" fill="white"/>
</svg>
