<svg width="24" height="25" viewBox="0 0 24 25" fill="none" xmlns="http://www.w3.org/2000/svg">
<path d="M2 3.5H22" stroke="#B4B5BF" stroke-width="1.5" stroke-miterlimit="10" stroke-linecap="round" stroke-linejoin="round"/>
<path d="M2 9.5H11" stroke="#B4B5BF" stroke-width="1.5" stroke-miterlimit="10" stroke-linecap="round" stroke-linejoin="round"/>
<path d="M2 15.5H8" stroke="#B4B5BF" stroke-width="1.5" stroke-miterlimit="10" stroke-linecap="round" stroke-linejoin="round"/>
<path d="M2 21.5H6" stroke="#B4B5BF" stroke-width="1.5" stroke-miterlimit="10" stroke-linecap="round" stroke-linejoin="round"/>
<path d="M11.8399 22.5C13.0439 22.5 14.0199 21.524 14.0199 20.32C14.0199 19.116 13.0439 18.14 11.8399 18.14C10.6359 18.14 9.65991 19.116 9.65991 20.32C9.65991 21.524 10.6359 22.5 11.8399 22.5Z" stroke="#B4B5BF" stroke-width="1.5" stroke-linecap="round" stroke-linejoin="round"/>
<path d="M22 18.87V10.36C22 8.54999 20.86 8.29999 19.71 8.60999L15.36 9.8C14.57 10.02 14.02 10.64 14.02 11.55V13.07V14.09V20.32" stroke="#B4B5BF" stroke-width="1.5" stroke-linecap="round" stroke-linejoin="round"/>
<path d="M19.8199 21.05C21.0239 21.05 21.9999 20.074 21.9999 18.87C21.9999 17.666 21.0239 16.69 19.8199 16.69C18.6159 16.69 17.6399 17.666 17.6399 18.87C17.6399 20.074 18.6159 21.05 19.8199 21.05Z" stroke="#B4B5BF" stroke-width="1.5" stroke-linecap="round" stroke-linejoin="round"/>
<path d="M14.02 14.1L22 11.92" stroke="#B4B5BF" stroke-width="1.5" stroke-linecap="round" stroke-linejoin="round"/>
</svg>
