<svg width="28" height="28" viewBox="0 0 28 28" fill="none" xmlns="http://www.w3.org/2000/svg">
<rect width="28" height="28" rx="8" fill="#F7AE00"/>
<path fill-rule="evenodd" clip-rule="evenodd" d="M11.6679 21.1359L19.478 11.0359C19.9025 10.4913 20.0534 9.8616 19.9119 9.22044C19.7893 8.63756 19.4309 8.08335 18.8932 7.66292L17.5821 6.62139C16.4408 5.71363 15.0259 5.80919 14.2147 6.85072L13.3375 7.98876C13.2243 8.13113 13.2526 8.34135 13.3941 8.45601C13.3941 8.45601 15.6107 10.2333 15.6579 10.2715C15.8088 10.4149 15.922 10.606 15.9503 10.8353C15.9974 11.2844 15.6862 11.7048 15.224 11.7622C15.007 11.7908 14.7995 11.7239 14.6486 11.5997L12.3188 9.74598C12.2056 9.66094 12.0358 9.67909 11.9415 9.79376L6.40457 16.9602C6.04613 17.4093 5.92351 17.9922 6.04613 18.556L6.75357 21.6232C6.7913 21.7857 6.93279 21.9003 7.10257 21.9003L10.2153 21.8621C10.7813 21.8526 11.3095 21.5946 11.6679 21.1359ZM16.0265 20.1806H21.1021C21.5973 20.1806 22.0001 20.5886 22.0001 21.0902C22.0001 21.5928 21.5973 21.9999 21.1021 21.9999H16.0265C15.5313 21.9999 15.1285 21.5928 15.1285 21.0902C15.1285 20.5886 15.5313 20.1806 16.0265 20.1806Z" fill="#1A1B22"/>
</svg>
