<svg width="25" height="24" viewBox="0 0 25 24" fill="none" xmlns="http://www.w3.org/2000/svg">
<g clip-path="url(#clip0_401_6720)">
<path d="M10.5 9.75C11.7426 9.75 12.75 8.74264 12.75 7.5C12.75 6.25736 11.7426 5.25 10.5 5.25C9.25736 5.25 8.25 6.25736 8.25 7.5C8.25 8.74264 9.25736 9.75 10.5 9.75Z" stroke="white" stroke-linecap="round" stroke-linejoin="round"/>
<path d="M16.5 18.75C17.7426 18.75 18.75 17.7426 18.75 16.5C18.75 15.2574 17.7426 14.25 16.5 14.25C15.2574 14.25 14.25 15.2574 14.25 16.5C14.25 17.7426 15.2574 18.75 16.5 18.75Z" stroke="white" stroke-linecap="round" stroke-linejoin="round"/>
<path d="M12.75 7.5H21" stroke="white" stroke-linecap="round" stroke-linejoin="round"/>
<path d="M4.5 7.5H8.25" stroke="white" stroke-linecap="round" stroke-linejoin="round"/>
<path d="M18.75 16.5H21" stroke="white" stroke-linecap="round" stroke-linejoin="round"/>
<path d="M4.5 16.5H14.25" stroke="white" stroke-linecap="round" stroke-linejoin="round"/>
</g>
<defs>
<clipPath id="clip0_401_6720">
<rect width="24" height="24" fill="white" transform="translate(0.75)"/>
</clipPath>
</defs>
</svg>
