<svg width="25" height="24" viewBox="0 0 25 24" fill="none" xmlns="http://www.w3.org/2000/svg">
<g clip-path="url(#clip0_201_13910)">
<path fill-rule="evenodd" clip-rule="evenodd" d="M24.02 12.2728C24.02 11.4219 23.9436 10.6037 23.8018 9.81824H12.5V14.4601H18.9582C18.68 15.9601 17.8345 17.231 16.5636 18.0819V21.0928H20.4418C22.7109 19.0037 24.02 15.9273 24.02 12.2728Z" fill="#1976D2"/>
<path fill-rule="evenodd" clip-rule="evenodd" d="M12.501 23.9993C15.741 23.9993 18.4573 22.9248 20.4428 21.092L16.5646 18.0811C15.4901 18.8011 14.1155 19.2266 12.501 19.2266C9.37553 19.2266 6.73007 17.1157 5.78643 14.2793H1.77734V17.3884C3.75189 21.3102 7.81007 23.9993 12.501 23.9993Z" fill="#4CAF50"/>
<path fill-rule="evenodd" clip-rule="evenodd" d="M5.78545 14.2804C5.54545 13.5604 5.40909 12.7913 5.40909 12.0004C5.40909 11.2095 5.54545 10.4404 5.78545 9.72042V6.61133H1.77636C0.963636 8.23133 0.5 10.0641 0.5 12.0004C0.5 13.9368 0.963636 15.7695 1.77636 17.3895L5.78545 14.2804Z" fill="#FFC107"/>
<path fill-rule="evenodd" clip-rule="evenodd" d="M12.501 4.77273C14.2628 4.77273 15.8446 5.37818 17.0883 6.56727L20.5301 3.12545C18.4519 1.18909 15.7355 0 12.501 0C7.81007 0 3.75189 2.68909 1.77734 6.61091L5.78643 9.72C6.73007 6.88364 9.37553 4.77273 12.501 4.77273Z" fill="#FF3D00"/>
</g>
<defs>
<clipPath id="clip0_201_13910">
<rect width="24" height="24" fill="white" transform="translate(0.5)"/>
</clipPath>
</defs>
</svg>
