<svg width="24" height="24" viewBox="0 0 24 24" fill="none" xmlns="http://www.w3.org/2000/svg">
<path d="M20.6301 12.78L20.6301 12.782C20.649 17.5536 16.7647 21.43 12.0001 21.43C7.23588 21.43 3.3501 17.5535 3.3501 12.78V10.9C3.3501 10.7908 3.44158 10.7 3.5501 10.7C3.65396 10.7 3.7501 10.7962 3.7501 10.9V12.78C3.7501 17.3262 7.44395 21.02 11.9901 21.02C16.5362 21.02 20.2301 17.3262 20.2301 12.78V10.9C20.2301 10.7908 20.3216 10.7 20.4301 10.7C20.534 10.7 20.6301 10.7962 20.6301 10.9L20.6301 12.78Z" fill="#F7AE00" stroke="#F7AE00"/>
<path d="M6 8.1C6 4.74 8.74 2 12.1 2C15.46 2 18.2 4.74 18.2 8.1V12.79C18.2 16.15 15.46 18.89 12.1 18.89C8.74 18.89 6 16.15 6 12.79V8.1Z" fill="#F7AE00"/>
</svg>
