<svg width="24" height="25" viewBox="0 0 24 25" fill="none" xmlns="http://www.w3.org/2000/svg">
<path d="M12 19.5C15.31 19.5 18 16.81 18 13.5V8.5C18 5.19 15.31 2.5 12 2.5C8.69 2.5 6 5.19 6 8.5V13.5C6 16.81 8.69 19.5 12 19.5Z" stroke="#B4B5BF" stroke-width="1.5" stroke-linecap="round" stroke-linejoin="round"/>
<path d="M3 11.5V13.5C3 18.47 7.03 22.5 12 22.5C16.97 22.5 21 18.47 21 13.5V11.5" stroke="#B4B5BF" stroke-width="1.5" stroke-linecap="round" stroke-linejoin="round"/>
<path d="M12.7379 22.1689V24.2989C12.7379 24.6889 12.4279 24.9989 12.0379 24.9989C11.6479 24.9989 11.3379 24.6889 11.3379 24.2989V22.1689C11.7988 22.1701 12.2971 22.1179 12.7379 22.1689Z" fill="#B4B5BF"/>
</svg>
