<svg width="17" height="18" viewBox="0 0 17 18" fill="none" xmlns="http://www.w3.org/2000/svg">
<path fill-rule="evenodd" clip-rule="evenodd" d="M0.166504 9.00478C0.166504 4.40517 3.90685 0.666626 8.49984 0.666626C13.0928 0.666626 16.8332 4.40517 16.8332 9.00478C16.8332 13.5948 13.0928 17.3333 8.49984 17.3333C3.90685 17.3333 0.166504 13.5948 0.166504 9.00478ZM11.5565 9.84817C11.6449 9.75973 11.7576 9.62305 11.7817 9.59089C11.9104 9.42205 11.9747 9.21302 11.9747 9.00478C11.9747 8.77082 11.9023 8.55375 11.7656 8.37687C11.7544 8.36567 11.7325 8.34178 11.7039 8.31065C11.6503 8.25242 11.5735 8.16882 11.5002 8.09547C10.8406 7.38796 9.11921 6.23022 8.21831 5.87647C8.08156 5.82099 7.73568 5.69959 7.55067 5.69155C7.37371 5.69155 7.20479 5.73175 7.04392 5.81215C6.84282 5.92471 6.68195 6.10158 6.59347 6.31062C6.53716 6.45534 6.44868 6.88949 6.44868 6.89753C6.3602 7.37188 6.31194 8.14371 6.31194 8.99594C6.31194 9.80877 6.3602 10.5476 6.43259 11.03C6.43458 11.032 6.4415 11.0665 6.45225 11.1201C6.48493 11.2831 6.55301 11.6225 6.62564 11.7617C6.8026 12.0993 7.14849 12.3084 7.5185 12.3084H7.55067C7.79199 12.3003 8.29874 12.0913 8.29874 12.0833C9.15138 11.7295 10.8325 10.628 11.5082 9.89641L11.5565 9.84817Z" fill="#F7AE00"/>
</svg>
