<svg width="29" height="28" viewBox="0 0 29 28" fill="none" xmlns="http://www.w3.org/2000/svg">
<path d="M26.75 14.0005C26.7507 14.2976 26.6745 14.5899 26.5289 14.8488C26.3832 15.1077 26.173 15.3246 25.9187 15.4782L10.16 25.1185C9.89431 25.2812 9.59001 25.37 9.27852 25.3758C8.96703 25.3816 8.65965 25.3041 8.38813 25.1513C8.11918 25.0009 7.89515 24.7817 7.73905 24.516C7.58296 24.2503 7.50045 23.9479 7.5 23.6398V4.36133C7.50045 4.0532 7.58296 3.75076 7.73905 3.48509C7.89515 3.21943 8.11918 3.00014 8.38813 2.84976C8.65965 2.69702 8.96703 2.61953 9.27852 2.6253C9.59001 2.63107 9.89431 2.71989 10.16 2.88258L25.9187 12.5229C26.173 12.6765 26.3832 12.8934 26.5289 13.1523C26.6745 13.4112 26.7507 13.7035 26.75 14.0005Z" fill="#3A3B43"/>
</svg>
