<svg width="28" height="29" viewBox="0 0 28 29" fill="none" xmlns="http://www.w3.org/2000/svg">
<path fill-rule="evenodd" clip-rule="evenodd" d="M24.2746 9.39418L23.5485 8.13407C22.9341 7.06783 21.5727 6.7 20.505 7.3118V7.3118C19.9968 7.61119 19.3903 7.69614 18.8194 7.54789C18.2484 7.39965 17.7599 7.0304 17.4615 6.52156C17.2696 6.19813 17.1664 5.82975 17.1625 5.45367V5.45367C17.1798 4.85072 16.9523 4.26643 16.5319 3.83391C16.1114 3.40139 15.5338 3.15747 14.9306 3.15772H13.4676C12.8767 3.15771 12.3101 3.39319 11.8932 3.81206C11.4763 4.23093 11.2436 4.79865 11.2464 5.3896V5.3896C11.2289 6.60971 10.2348 7.58957 9.01453 7.58945C8.63845 7.58554 8.27007 7.48239 7.94664 7.29044V7.29044C6.87894 6.67864 5.5175 7.04647 4.90317 8.11271L4.12361 9.39418C3.51002 10.4591 3.87284 11.8197 4.9352 12.4377V12.4377C5.62576 12.8363 6.05116 13.5731 6.05116 14.3705C6.05116 15.1679 5.62576 15.9047 4.9352 16.3034V16.3034C3.87419 16.9172 3.51097 18.2745 4.12361 19.3362V19.3362L4.86045 20.607C5.14829 21.1264 5.63124 21.5096 6.20243 21.672C6.77362 21.8343 7.38595 21.7623 7.90393 21.472V21.472C8.41313 21.1749 9.01992 21.0935 9.58943 21.2459C10.1589 21.3983 10.644 21.7718 10.9367 22.2836C11.1287 22.607 11.2318 22.9754 11.2357 23.3515V23.3515C11.2357 24.5841 12.235 25.5833 13.4676 25.5833H14.9306C16.1591 25.5834 17.1566 24.5906 17.1625 23.3621V23.3621C17.1597 22.7693 17.3939 22.2 17.8131 21.7808C18.2322 21.3616 18.8016 21.1274 19.3944 21.1303C19.7696 21.1403 20.1364 21.243 20.4623 21.4293V21.4293C21.5272 22.0429 22.8878 21.68 23.5058 20.6177V20.6177L24.2746 19.3362C24.5723 18.8254 24.6539 18.217 24.5016 17.6457C24.3493 17.0745 23.9755 16.5875 23.463 16.2927V16.2927C22.9506 15.9979 22.5768 15.511 22.4245 14.9397C22.2722 14.3685 22.3538 13.7601 22.6515 13.2492C22.845 12.9114 23.1251 12.6312 23.463 12.4377V12.4377C24.519 11.82 24.881 10.4674 24.2746 9.40485V9.40485V9.39418Z" stroke="white" stroke-width="1.5" stroke-linecap="round" stroke-linejoin="round"/>
<ellipse cx="14.2044" cy="14.3706" rx="3.07552" ry="3.07551" stroke="white" stroke-width="1.5" stroke-linecap="round" stroke-linejoin="round"/>
</svg>
