<svg width="28" height="28" viewBox="0 0 28 28" fill="none" xmlns="http://www.w3.org/2000/svg">
<path d="M27.0703 8.41192V8.41329V19.5866C27.0703 21.9139 26.3786 23.7113 25.1634 24.9264C23.9483 26.1415 22.1509 26.8333 19.8237 26.8333H8.66366C6.33644 26.8333 4.53916 26.1415 3.3241 24.925C2.10897 23.7083 1.41699 21.9076 1.41699 19.5733V8.41329C1.41699 6.08606 2.10875 4.28864 3.32388 3.07351C4.539 1.85839 6.33643 1.16663 8.66366 1.16663H19.837C22.1643 1.16663 23.9615 1.85843 25.1749 3.07329C26.3881 4.28805 27.0767 6.08501 27.0703 8.41192ZM6.25033 15.5H22.2503C23.0731 15.5 23.7503 14.8228 23.7503 14C23.7503 13.1772 23.0731 12.5 22.2503 12.5H6.25033C5.42752 12.5 4.75033 13.1772 4.75033 14C4.75033 14.8228 5.42752 15.5 6.25033 15.5Z" fill="#F7AE00" stroke="#F7AE00"/>
</svg>
